SN Abbatia Beta-Light.ufo
<glyph name="exclam" format="2">
  <advance width="190"/>
  <unicode hex="0021"/>
  <outline>
    <contour>
      <point x="73" y="233" type="line"/>
      <point x="108" y="233" type="line"/>
      <point x="132" y="735" type="line"/>
      <point x="117" y="750" type="line"/>
      <point x="58" y="740" type="line"/>
      <point x="70" y="327" type="line"/>
    </contour>
    <component base="period" xOffset="-20"/>
  </outline>
</glyph>
<glyph name="ampersand" format="2">
  <advance width="510"/>
  <unicode hex="0026"/>
  <outline>
    <contour>
      <point x="480" y="393" type="line"/>
      <point x="184" y="393" type="line"/>
      <point x="161" y="414"/>
      <point x="145" y="460"/>
      <point x="145" y="528" type="curve" smooth="yes"/>
      <point x="145" y="560"/>
      <point x="147" y="586"/>
      <point x="154" y="619" type="curve"/>
      <point x="179" y="629"/>
      <point x="217" y="635"/>
      <point x="259" y="635" type="curve" smooth="yes"/>
      <point x="303" y="635"/>
      <point x="337" y="629"/>
      <point x="369" y="620" type="curve"/>
      <point x="382" y="673" type="line"/>
      <point x="352" y="683"/>
      <point x="315" y="690"/>
      <point x="263" y="690" type="curve" smooth="yes"/>
      <point x="222" y="690"/>
      <point x="182" y="683"/>
      <point x="155" y="671" type="curve"/>
      <point x="93" y="604" type="line"/>
      <point x="88" y="580"/>
      <point x="85" y="559"/>
      <point x="85" y="525" type="curve" smooth="yes"/>
      <point x="85" y="481"/>
      <point x="96" y="441"/>
      <point x="107" y="418" type="curve"/>
      <point x="166" y="370" type="line"/>
      <point x="112" y="348"/>
      <point x="50" y="283"/>
      <point x="50" y="192" type="curve" smooth="yes"/>
      <point x="50" y="43"/>
      <point x="133" y="-9"/>
      <point x="240" y="-9" type="curve" smooth="yes"/>
      <point x="293" y="-9"/>
      <point x="308" y="-4"/>
      <point x="341" y="5" type="curve"/>
      <point x="402" y="75" type="line"/>
      <point x="400" y="344" type="line"/>
      <point x="480" y="359" type="line"/>
    </contour>
    <contour>
      <point x="110" y="195" type="curve" smooth="yes"/>
      <point x="110" y="305"/>
      <point x="163" y="351"/>
      <point x="232" y="351" type="curve"/>
      <point x="340" y="350" type="line"/>
      <point x="340" y="59" type="line"/>
      <point x="306" y="47"/>
      <point x="284" y="44"/>
      <point x="240" y="44" type="curve" smooth="yes"/>
      <point x="154" y="44"/>
      <point x="110" y="105"/>
    </contour>
  </outline>
</glyph>
<glyph name="parenleft" format="2">
  <advance width="393"/>
  <unicode hex="0028"/>
  <outline>
    <contour>
      <point x="307" y="-155" type="curve"/>
      <point x="333" y="-128" type="line"/>
      <point x="218" y="6"/>
      <point x="161" y="171"/>
      <point x="161" y="336" type="curve" smooth="yes"/>
      <point x="161" y="501"/>
      <point x="218" y="666"/>
      <point x="333" y="798" type="curve"/>
      <point x="307" y="825" type="line"/>
      <point x="169" y="697"/>
      <point x="100" y="516"/>
      <point x="100" y="335" type="curve" smooth="yes"/>
      <point x="100" y="155"/>
      <point x="169" y="-26"/>
    </contour>
  </outline>
</glyph>
<glyph name="comma" format="2">
  <advance width="222"/>
  <unicode hex="002C"/>
  <outline>
    <contour>
      <point x="89" y="-165" type="line"/>
      <point x="133" y="-126"/>
      <point x="172" y="-28"/>
      <point x="172" y="44" type="curve"/>
      <point x="110" y="39" type="line"/>
      <point x="110" y="-17"/>
      <point x="86" y="-107"/>
      <point x="68" y="-152" type="curve"/>
    </contour>
    <contour>
      <point x="110" y="-10" type="line" smooth="yes"/>
      <point x="126" y="-16"/>
      <point x="145" y="-4"/>
      <point x="155" y="5" type="curve"/>
      <point x="165" y="15"/>
      <point x="172" y="28"/>
      <point x="172" y="44" type="curve" smooth="yes"/>
      <point x="172" y="74"/>
      <point x="149" y="99"/>
      <point x="116" y="99" type="curve" smooth="yes"/>
      <point x="95" y="99"/>
      <point x="80" y="89"/>
      <point x="69" y="76" type="curve"/>
      <point x="61" y="57"/>
      <point x="57" y="37"/>
      <point x="63" y="7" type="curve"/>
    </contour>
  </outline>
</glyph>
<glyph name="hyphen" format="2">
  <advance width="423"/>
  <unicode hex="002D"/>
  <outline>
    <contour>
      <point x="60" y="283" type="line"/>
      <point x="76" y="268" type="line"/>
      <point x="359" y="268" type="line"/>
      <point x="363" y="326" type="line"/>
      <point x="64" y="326" type="line"/>
    </contour>
  </outline>
</glyph>
<glyph name="period" format="2">
  <advance width="230"/>
  <unicode hex="002E"/>
  <outline>
    <contour>
      <point x="114" y="-10" type="curve" smooth="yes"/>
      <point x="127" y="-10"/>
      <point x="147" y="-6"/>
      <point x="156" y="2" type="curve"/>
      <point x="164" y="12"/>
      <point x="170" y="30"/>
      <point x="170" y="46" type="curve" smooth="yes"/>
      <point x="170" y="76"/>
      <point x="150" y="100"/>
      <point x="116" y="100" type="curve" smooth="yes"/>
      <point x="96" y="100"/>
      <point x="78" y="91"/>
      <point x="69" y="81" type="curve"/>
      <point x="62" y="70"/>
      <point x="60" y="57"/>
      <point x="60" y="42" type="curve" smooth="yes"/>
      <point x="60" y="11"/>
      <point x="83" y="-10"/>
    </contour>
  </outline>
</glyph>
<glyph name="question" format="2">
  <advance width="439"/>
  <unicode hex="003F"/>
  <outline>
    <contour>
      <point x="152" y="233" type="line"/>
      <point x="182" y="233" type="line"/>
      <point x="196" y="315" type="line"/>
      <point x="329" y="419" type="line"/>
      <point x="355" y="452"/>
      <point x="379" y="500"/>
      <point x="379" y="560" type="curve" smooth="yes"/>
      <point x="379" y="672"/>
      <point x="309" y="749"/>
      <point x="208" y="749" type="curve" smooth="yes"/>
      <point x="126" y="749"/>
      <point x="80" y="725"/>
      <point x="40" y="703" type="curve"/>
      <point x="60" y="530" type="line"/>
      <point x="90" y="530" type="line"/>
      <point x="101" y="710" type="line"/>
      <point x="73" y="679" type="line"/>
      <point x="97" y="693"/>
      <point x="149" y="699"/>
      <point x="191" y="699" type="curve" smooth="yes"/>
      <point x="274" y="699"/>
      <point x="326" y="639"/>
      <point x="326" y="549" type="curve" smooth="yes"/>
      <point x="326" y="495"/>
      <point x="294" y="444"/>
      <point x="228" y="401" type="curve" smooth="yes"/>
      <point x="194" y="379"/>
      <point x="163" y="353"/>
      <point x="144" y="320" type="curve"/>
    </contour>
    <component base="period" xOffset="54"/>
  </outline>
</glyph>
<glyph name="A" format="2">
  <advance width="581"/>
  <unicode hex="0041"/>
  <anchor x="519" y="10" name="ogonek"/>
  <anchor x="291" y="0" name="bottom"/>
  <anchor x="291" y="680" name="top"/>
  <outline>
    <contour>
      <point x="288" y="660" type="line"/>
      <point x="452" y="-1" type="line"/>
      <point x="581" y="0" type="line"/>
      <point x="581" y="30" type="line"/>
      <point x="501" y="50" type="line"/>
      <point x="348" y="660" type="line"/>
    </contour>
    <contour>
      <point x="152" y="220" type="line"/>
      <point x="407" y="220" type="line"/>
      <point x="407" y="265" type="line"/>
      <point x="152" y="265" type="line"/>
    </contour>
    <contour>
      <point x="0" y="0" type="line"/>
      <point x="230" y="0" type="line"/>
      <point x="230" y="30" type="line"/>
      <point x="133" y="49" type="line"/>
      <point x="295" y="648" type="line"/>
      <point x="324" y="648" type="line"/>
      <point x="348" y="660" type="line"/>
      <point x="323" y="690" type="line"/>
      <point x="173" y="680" type="line"/>
      <point x="168" y="652" type="line"/>
      <point x="239" y="632" type="line"/>
      <point x="80" y="50" type="line"/>
      <point x="0" y="30" type="line"/>
    </contour>
  </outline>
</glyph>
<glyph name="B" format="2">
  <advance width="547"/>
  <unicode hex="0042"/>
  <outline>
    <contour>
      <point x="289" y="-12" type="curve" smooth="yes"/>
      <point x="355" y="-12"/>
      <point x="391" y="5"/>
      <point x="417" y="25" type="curve"/>
      <point x="467" y="85" type="line"/>
      <point x="465" y="248" type="line" smooth="yes"/>
      <point x="464" y="312"/>
      <point x="427" y="350"/>
      <point x="374" y="363" type="curve"/>
      <point x="382" y="358" type="line"/>
      <point x="425" y="392" type="line"/>
      <point x="435" y="428"/>
      <point x="442" y="469"/>
      <point x="442" y="519" type="curve" smooth="yes"/>
      <point x="442" y="633"/>
      <point x="377" y="690"/>
      <point x="282" y="690" type="curve"/>
      <point x="282" y="690"/>
      <point x="185" y="661"/>
      <point x="142" y="646" type="curve"/>
      <point x="142" y="627" type="line"/>
      <point x="166" y="633"/>
      <point x="229" y="635"/>
      <point x="266" y="635" type="curve" smooth="yes"/>
      <point x="339" y="635"/>
      <point x="382" y="598"/>
      <point x="382" y="513" type="curve" smooth="yes"/>
      <point x="382" y="456"/>
      <point x="376" y="406"/>
      <point x="363" y="358" type="curve"/>
      <point x="364" y="365" type="line"/>
      <point x="144" y="365" type="line"/>
      <point x="144" y="320" type="line"/>
      <point x="317" y="320" type="line" smooth="yes"/>
      <point x="383" y="320"/>
      <point x="405" y="290"/>
      <point x="405" y="231" type="curve" smooth="yes"/>
      <point x="405" y="50" type="line"/>
      <point x="424" y="86" type="line"/>
      <point x="401" y="57"/>
      <point x="353" y="40"/>
      <point x="291" y="40" type="curve" smooth="yes"/>
      <point x="236" y="40"/>
      <point x="184" y="58"/>
      <point x="154" y="97" type="curve"/>
      <point x="130" y="71" type="line"/>
      <point x="160" y="20"/>
      <point x="222" y="-12"/>
    </contour>
    <contour>
      <point x="125" y="-5" type="line"/>
      <point x="155" y="57" type="line"/>
      <point x="155" y="635" type="line"/>
      <point x="282" y="690" type="line"/>
      <point x="0" y="680" type="line"/>
      <point x="0" y="650" type="line"/>
      <point x="95" y="630" type="line"/>
      <point x="95" y="0" type="line"/>
    </contour>
  </outline>
</glyph>
<glyph name="C" format="2">
  <advance width="504"/>
  <unicode hex="0043"/>
  <outline>
    <contour>
      <point x="273" y="-10" type="curve" smooth="yes"/>
      <point x="292" y="-10"/>
      <point x="312" y="-8"/>
      <point x="327" y="-6" type="curve"/>
      <point x="444" y="25" type="line"/>
      <point x="444" y="73" type="line"/>
      <point x="392" y="59"/>
      <point x="331" y="45"/>
      <point x="281" y="45" type="curve" smooth="yes"/>
      <point x="207" y="45"/>
      <point x="140" y="83"/>
      <point x="140" y="167" type="curve" smooth="yes"/>
      <point x="140" y="654" type="line"/>
      <point x="124" y="612" type="line"/>
      <point x="147" y="627"/>
      <point x="207" y="635"/>
      <point x="259" y="635" type="curve" smooth="yes"/>
      <point x="308" y="635"/>
      <point x="368" y="628"/>
      <point x="394" y="612" type="curve"/>
      <point x="369" y="656" type="line"/>
      <point x="382" y="471" type="line"/>
      <point x="412" y="471" type="line"/>
      <point x="435" y="646" type="line"/>
      <point x="411" y="674"/>
      <point x="336" y="691"/>
      <point x="273" y="691" type="curve" smooth="yes"/>
      <point x="220" y="691"/>
      <point x="159" y="682"/>
      <point x="135" y="677" type="curve"/>
      <point x="80" y="607" type="line"/>
      <point x="80" y="180" type="line" smooth="yes"/>
      <point x="80" y="43"/>
      <point x="168" y="-10"/>
    </contour>
  </outline>
</glyph>
<glyph name="D" format="2">
  <advance width="553"/>
  <unicode hex="0044"/>
  <outline>
    <contour>
      <point x="305" y="-10" type="curve" smooth="yes"/>
      <point x="346" y="-10"/>
      <point x="387" y="-3"/>
      <point x="413" y="5" type="curve"/>
      <point x="473" y="75" type="line"/>
      <point x="472" y="525" type="line" smooth="yes"/>
      <point x="472" y="646"/>
      <point x="404" y="690"/>
      <point x="304" y="690" type="curve" smooth="yes"/>
      <point x="261" y="690"/>
      <point x="237" y="684"/>
      <point x="225" y="680" type="curve"/>
      <point x="152" y="646" type="line"/>
      <point x="152" y="627" type="line"/>
      <point x="181" y="632"/>
      <point x="249" y="635"/>
      <point x="290" y="635" type="curve" smooth="yes"/>
      <point x="363" y="635"/>
      <point x="412" y="603"/>
      <point x="412" y="522" type="curve"/>
      <point x="412" y="45" type="line"/>
      <point x="426" y="58" type="line"/>
      <point x="418" y="57"/>
      <point x="359" y="42"/>
      <point x="301" y="42" type="curve" smooth="yes"/>
      <point x="229" y="42"/>
      <point x="170" y="87"/>
      <point x="164" y="97" type="curve"/>
      <point x="145" y="62" type="line"/>
      <point x="178" y="26"/>
      <point x="234" y="-10"/>
    </contour>
    <contour>
      <point x="135" y="-5" type="line"/>
      <point x="165" y="57" type="line"/>
      <point x="165" y="635" type="line"/>
      <point x="304" y="690" type="line"/>
      <point x="10" y="680" type="line"/>
      <point x="10" y="650" type="line"/>
      <point x="105" y="630" type="line"/>
      <point x="105" y="0" type="line"/>
    </contour>
  </outline>
</glyph>
<glyph name="E" format="2">
  <advance width="513"/>
  <unicode hex="0045"/>
  <anchor x="464" y="10" name="ogonek"/>
  <anchor x="257" y="680" name="top"/>
  <anchor x="30" y="680" name="topleft"/>
  <anchor x="257" y="0" name="bottom"/>
  <outline>
    <contour>
      <point x="30" y="0" type="line"/>
      <point x="185" y="0" type="line"/>
      <point x="185" y="680" type="line"/>
      <point x="30" y="680" type="line"/>
      <point x="30" y="650" type="line"/>
      <point x="125" y="630" type="line"/>
      <point x="125" y="50" type="line"/>
      <point x="30" y="30" type="line"/>
    </contour>
    <contour>
      <point x="140" y="0" type="line"/>
      <point x="448" y="0" type="line"/>
      <point x="453" y="15" type="line"/>
      <point x="463" y="175" type="line"/>
      <point x="433" y="175" type="line"/>
      <point x="405" y="45" type="line"/>
      <point x="140" y="45" type="line"/>
    </contour>
    <contour>
      <point x="179" y="307" type="line"/>
      <point x="380" y="307" type="line"/>
      <point x="385" y="354" type="line"/>
      <point x="179" y="354" type="line"/>
    </contour>
    <contour>
      <point x="425" y="515" type="line"/>
      <point x="455" y="515" type="line"/>
      <point x="455" y="675" type="line"/>
      <point x="440" y="690" type="line"/>
      <point x="40" y="680" type="line"/>
      <point x="140" y="635" type="line"/>
      <point x="395" y="635" type="line"/>
    </contour>
  </outline>
</glyph>
<glyph name="F" format="2">
  <advance width="463"/>
  <unicode hex="0046"/>
  <outline>
    <contour>
      <point x="30" y="0" type="line"/>
      <point x="305" y="0" type="line"/>
      <point x="305" y="30" type="line"/>
      <point x="185" y="50" type="line"/>
      <point x="185" y="680" type="line"/>
      <point x="30" y="680" type="line"/>
      <point x="30" y="650" type="line"/>
      <point x="125" y="630" type="line"/>
      <point x="125" y="50" type="line"/>
      <point x="30" y="30" type="line"/>
    </contour>
    <contour>
      <point x="179" y="307" type="line"/>
      <point x="405" y="307" type="line"/>
      <point x="410" y="354" type="line"/>
      <point x="179" y="354" type="line"/>
    </contour>
    <contour>
      <point x="428" y="515" type="line"/>
      <point x="458" y="515" type="line"/>
      <point x="458" y="675" type="line"/>
      <point x="443" y="690" type="line"/>
      <point x="30" y="680" type="line"/>
      <point x="140" y="635" type="line"/>
      <point x="400" y="635" type="line"/>
    </contour>
  </outline>
</glyph>
<glyph name="G" format="2">
  <advance width="488"/>
  <unicode hex="0047"/>
  <outline>
    <contour>
      <point x="263" y="-10" type="curve" smooth="yes"/>
      <point x="298" y="-10"/>
      <point x="324" y="-8"/>
      <point x="342" y="-6" type="curve"/>
      <point x="393" y="32" type="line"/>
      <point x="423" y="-6" type="line"/>
      <point x="448" y="0" type="line"/>
      <point x="448" y="319" type="line"/>
      <point x="423" y="344" type="line"/>
      <point x="293" y="334" type="line"/>
      <point x="293" y="304" type="line"/>
      <point x="388" y="294" type="line"/>
      <point x="388" y="43" type="line"/>
      <point x="405" y="65" type="line"/>
      <point x="374" y="50"/>
      <point x="335" y="45"/>
      <point x="275" y="45" type="curve" smooth="yes"/>
      <point x="187" y="45"/>
      <point x="140" y="83"/>
      <point x="140" y="171" type="curve" smooth="yes"/>
      <point x="140" y="653" type="line"/>
      <point x="124" y="609" type="line"/>
      <point x="159" y="628"/>
      <point x="208" y="635"/>
      <point x="262" y="635" type="curve" smooth="yes"/>
      <point x="316" y="635"/>
      <point x="370" y="627"/>
      <point x="399" y="612" type="curve"/>
      <point x="374" y="656" type="line"/>
      <point x="394" y="471" type="line"/>
      <point x="424" y="471" type="line"/>
      <point x="440" y="649" type="line"/>
      <point x="415" y="670"/>
      <point x="354" y="690"/>
      <point x="271" y="690" type="curve" smooth="yes"/>
      <point x="216" y="690"/>
      <point x="170" y="684"/>
      <point x="135" y="674" type="curve"/>
      <point x="80" y="604" type="line"/>
      <point x="80" y="174" type="line" smooth="yes"/>
      <point x="80" y="43"/>
      <point x="159" y="-10"/>
    </contour>
  </outline>
</glyph>
<glyph name="H" format="2">
  <advance width="635"/>
  <unicode hex="0048"/>
  <outline>
    <contour>
      <point x="179" y="320" type="line"/>
      <point x="458" y="320" type="line"/>
      <point x="458" y="367" type="line"/>
      <point x="179" y="367" type="line"/>
    </contour>
    <contour>
      <point x="30" y="0" type="line"/>
      <point x="260" y="0" type="line"/>
      <point x="260" y="30" type="line"/>
      <point x="185" y="50" type="line"/>
      <point x="185" y="630" type="line"/>
      <point x="260" y="650" type="line"/>
      <point x="260" y="680" type="line"/>
      <point x="30" y="680" type="line"/>
      <point x="30" y="650" type="line"/>
      <point x="125" y="630" type="line"/>
      <point x="125" y="50" type="line"/>
      <point x="30" y="30" type="line"/>
    </contour>
    <contour>
      <point x="375" y="0" type="line"/>
      <point x="605" y="0" type="line"/>
      <point x="605" y="30" type="line"/>
      <point x="510" y="50" type="line"/>
      <point x="510" y="630" type="line"/>
      <point x="605" y="650" type="line"/>
      <point x="605" y="680" type="line"/>
      <point x="375" y="680" type="line"/>
      <point x="375" y="650" type="line"/>
      <point x="450" y="630" type="line"/>
      <point x="450" y="50" type="line"/>
      <point x="375" y="30" type="line"/>
    </contour>
  </outline>
</glyph>
<glyph name="I" format="2">
  <advance width="310"/>
  <unicode hex="0049"/>
  <anchor x="279" y="10" name="ogonek"/>
  <anchor x="155" y="680" name="top"/>
  <anchor x="20" y="680" name="topleft"/>
  <anchor x="155" y="0" name="bottom"/>
  <outline>
    <contour>
      <point x="30" y="0" type="line"/>
      <point x="280" y="0" type="line"/>
      <point x="280" y="30" type="line"/>
      <point x="185" y="50" type="line"/>
      <point x="185" y="630" type="line"/>
      <point x="280" y="650" type="line"/>
      <point x="280" y="680" type="line"/>
      <point x="30" y="680" type="line"/>
      <point x="30" y="650" type="line"/>
      <point x="125" y="630" type="line"/>
      <point x="125" y="50" type="line"/>
      <point x="30" y="30" type="line"/>
    </contour>
  </outline>
</glyph>
<glyph name="J" format="2">
  <advance width="350"/>
  <unicode hex="004A"/>
  <outline>
    <contour>
      <point x="185" y="630" type="line"/>
      <point x="185" y="155" type="line" smooth="yes"/>
      <point x="185" y="72"/>
      <point x="161" y="40"/>
      <point x="106" y="40" type="curve" smooth="yes"/>
      <point x="81" y="40"/>
      <point x="57" y="41"/>
      <point x="20" y="46" type="curve"/>
      <point x="20" y="11" type="line"/>
      <point x="75" y="-5" type="line"/>
      <point x="90" y="-8"/>
      <point x="110" y="-10"/>
      <point x="120" y="-10" type="curve" smooth="yes"/>
      <point x="226" y="-10"/>
      <point x="245" y="81"/>
      <point x="245" y="150" type="curve" smooth="yes"/>
      <point x="245" y="630" type="line"/>
      <point x="340" y="650" type="line"/>
      <point x="340" y="680" type="line"/>
      <point x="80" y="680" type="line"/>
      <point x="80" y="650" type="line"/>
    </contour>
  </outline>
</glyph>
<glyph name="K" format="2">
  <advance width="580"/>
  <unicode hex="004B"/>
  <outline>
    <contour>
      <point x="255" y="680" type="line"/>
      <point x="30" y="680" type="line"/>
      <point x="30" y="650" type="line"/>
      <point x="125" y="630" type="line"/>
      <point x="125" y="50" type="line"/>
      <point x="30" y="30" type="line"/>
      <point x="30" y="0" type="line"/>
      <point x="255" y="0" type="line"/>
      <point x="255" y="30" type="line"/>
      <point x="185" y="50" type="line"/>
      <point x="185" y="630" type="line"/>
      <point x="255" y="650" type="line"/>
    </contour>
    <contour>
      <point x="493" y="-13" type="curve"/>
      <point x="580" y="2" type="line"/>
      <point x="580" y="32" type="line"/>
      <point x="497" y="42" type="line"/>
      <point x="352" y="328" type="line"/>
      <point x="314" y="352" type="line"/>
      <point x="292" y="319" type="line"/>
      <point x="420" y="55" type="line" smooth="yes"/>
      <point x="442" y="10"/>
      <point x="460" y="-7"/>
    </contour>
    <contour>
      <point x="167" y="309" type="line"/>
      <point x="317" y="309" type="line"/>
      <point x="534" y="640" type="line"/>
      <point x="519" y="680" type="line"/>
      <point x="375" y="680" type="line"/>
      <point x="372" y="650" type="line"/>
      <point x="461" y="630" type="line"/>
      <point x="297" y="356" type="line"/>
      <point x="167" y="356" type="line"/>
    </contour>
  </outline>
</glyph>
<glyph name="L" format="2">
  <advance width="500"/>
  <unicode hex="004C"/>
  <outline>
    <contour>
      <point x="140" y="0" type="line"/>
      <point x="455" y="0" type="line"/>
      <point x="470" y="15" type="line"/>
      <point x="470" y="175" type="line"/>
      <point x="440" y="175" type="line"/>
      <point x="410" y="45" type="line"/>
      <point x="140" y="45" type="line"/>
    </contour>
    <contour>
      <point x="280" y="680" type="line"/>
      <point x="30" y="680" type="line"/>
      <point x="30" y="650" type="line"/>
      <point x="125" y="630" type="line"/>
      <point x="125" y="50" type="line"/>
      <point x="30" y="30" type="line"/>
      <point x="30" y="0" type="line"/>
      <point x="185" y="0" type="line"/>
      <point x="185" y="630" type="line"/>
      <point x="280" y="650" type="line"/>
    </contour>
  </outline>
</glyph>
<glyph name="M" format="2">
  <advance width="745"/>
  <unicode hex="004D"/>
  <outline>
    <contour>
      <point x="30" y="0" type="line"/>
      <point x="246" y="0" type="line"/>
      <point x="245" y="30" type="line"/>
      <point x="175" y="51" type="line"/>
      <point x="175" y="635" type="line"/>
      <point x="159" y="587" type="line"/>
      <point x="349" y="78" type="line"/>
      <point x="394" y="85" type="line"/>
      <point x="590" y="625" type="line"/>
      <point x="560" y="622" type="line"/>
      <point x="560" y="51" type="line"/>
      <point x="490" y="30" type="line"/>
      <point x="489" y="0" type="line"/>
      <point x="715" y="0" type="line"/>
      <point x="715" y="30" type="line"/>
      <point x="620" y="50" type="line"/>
      <point x="620" y="630" type="line"/>
      <point x="715" y="650" type="line"/>
      <point x="715" y="680" type="line"/>
      <point x="555" y="680" type="line"/>
      <point x="370" y="157" type="line"/>
      <point x="382" y="149" type="line"/>
      <point x="186" y="681" type="line"/>
      <point x="30" y="680" type="line"/>
      <point x="30" y="650" type="line"/>
      <point x="125" y="630" type="line"/>
      <point x="125" y="52" type="line"/>
      <point x="30" y="30" type="line"/>
    </contour>
  </outline>
</glyph>
<glyph name="N" format="2">
  <advance width="615"/>
  <unicode hex="004E"/>
  <anchor x="300" y="680" name="top"/>
  <anchor x="300" y="0" name="bottom"/>
  <outline>
    <contour>
      <point x="595" y="680" type="line"/>
      <point x="375" y="680" type="line"/>
      <point x="375" y="650" type="line"/>
      <point x="450" y="630" type="line"/>
      <point x="450" y="66" type="line"/>
      <point x="484" y="59" type="line"/>
      <point x="161" y="680" type="line"/>
      <point x="30" y="680" type="line"/>
      <point x="30" y="650" type="line"/>
      <point x="125" y="630" type="line"/>
      <point x="125" y="50" type="line"/>
      <point x="30" y="30" type="line"/>
      <point x="30" y="0" type="line"/>
      <point x="260" y="0" type="line"/>
      <point x="260" y="30" type="line"/>
      <point x="175" y="50" type="line"/>
      <point x="175" y="591" type="line"/>
      <point x="147" y="584" type="line"/>
      <point x="455" y="-8" type="line"/>
      <point x="500" y="-2" type="line"/>
      <point x="500" y="630" type="line"/>
      <point x="595" y="650" type="line"/>
    </contour>
  </outline>
</glyph>
<glyph name="O" format="2">
  <advance width="529"/>
  <unicode hex="004F"/>
  <anchor x="265" y="340" name="center"/>
  <anchor x="468" y="10" name="ogonek"/>
  <anchor x="265" y="680" name="top"/>
  <anchor x="499" y="680" name="topright"/>
  <anchor x="30" y="680" name="topleft"/>
  <anchor x="265" y="0" name="bottom"/>
  <outline>
    <contour>
      <point x="261" y="-10" type="curve" smooth="yes"/>
      <point x="325" y="-10"/>
      <point x="374" y="-3"/>
      <point x="389" y="5" type="curve"/>
      <point x="449" y="75" type="line"/>
      <point x="448" y="525" type="line" smooth="yes"/>
      <point x="448" y="646"/>
      <point x="388" y="690"/>
      <point x="273" y="690" type="curve" smooth="yes"/>
      <point x="206" y="690"/>
      <point x="160" y="683"/>
      <point x="140" y="677" type="curve"/>
      <point x="80" y="607" type="line"/>
      <point x="81" y="165" type="line" smooth="yes"/>
      <point x="81" y="46"/>
      <point x="142" y="-10"/>
    </contour>
    <contour>
      <point x="388" y="50" type="line"/>
      <point x="398" y="63" type="line"/>
      <point x="374" y="53"/>
      <point x="331" y="45"/>
      <point x="273" y="45" type="curve" smooth="yes"/>
      <point x="184" y="45"/>
      <point x="140" y="75"/>
      <point x="140" y="165" type="curve" smooth="yes"/>
      <point x="140" y="630" type="line"/>
      <point x="130" y="617" type="line"/>
      <point x="157" y="627"/>
      <point x="196" y="635"/>
      <point x="254" y="635" type="curve" smooth="yes"/>
      <point x="343" y="635"/>
      <point x="388" y="614"/>
      <point x="388" y="529" type="curve" smooth="yes"/>
    </contour>
  </outline>
</glyph>
<glyph name="P" format="2">
  <advance width="531"/>
  <unicode hex="0050"/>
  <outline>
    <contour>
      <point x="30" y="0" type="line"/>
      <point x="300" y="0" type="line"/>
      <point x="300" y="30" type="line"/>
      <point x="185" y="50" type="line"/>
      <point x="184" y="635" type="line"/>
      <point x="312" y="690" type="line"/>
      <point x="30" y="680" type="line"/>
      <point x="30" y="650" type="line"/>
      <point x="125" y="630" type="line"/>
      <point x="125" y="50" type="line"/>
      <point x="30" y="30" type="line"/>
    </contour>
    <contour>
      <point x="315" y="219" type="curve" smooth="yes"/>
      <point x="358" y="219"/>
      <point x="388" y="225"/>
      <point x="411" y="234" type="curve"/>
      <point x="471" y="304" type="line"/>
      <point x="470" y="523" type="line" smooth="yes"/>
      <point x="469" y="636"/>
      <point x="404" y="690"/>
      <point x="312" y="690" type="curve" smooth="yes"/>
      <point x="256" y="690"/>
      <point x="201" y="660"/>
      <point x="172" y="646" type="curve"/>
      <point x="177" y="629" type="line"/>
      <point x="200" y="633"/>
      <point x="240" y="636"/>
      <point x="301" y="636" type="curve" smooth="yes"/>
      <point x="365" y="636"/>
      <point x="410" y="599"/>
      <point x="410" y="520" type="curve" smooth="yes"/>
      <point x="410" y="274" type="line"/>
      <point x="424" y="287" type="line"/>
      <point x="396" y="276"/>
      <point x="355" y="269"/>
      <point x="317" y="269" type="curve" smooth="yes"/>
      <point x="256" y="269"/>
      <point x="215" y="272"/>
      <point x="175" y="285" type="curve"/>
      <point x="162" y="242" type="line"/>
      <point x="196" y="230"/>
      <point x="248" y="219"/>
    </contour>
  </outline>
</glyph>
<glyph name="Q" format="2">
  <advance width="527"/>
  <unicode hex="0051"/>
  <outline>
    <contour>
      <point x="368" y="-156" type="curve" smooth="yes"/>
      <point x="383" y="-156"/>
      <point x="394" y="-152"/>
      <point x="467" y="-130" type="curve"/>
      <point x="465" y="-102" type="line"/>
      <point x="382" y="-102" type="line"/>
      <point x="204" y="-10" type="line"/>
      <point x="180" y="4" type="line"/>
      <point x="159" y="-25" type="line"/>
      <point x="225" y="-80"/>
      <point x="337" y="-156"/>
    </contour>
    <component base="O"/>
  </outline>
</glyph>
<glyph name="R" format="2">
  <advance width="590"/>
  <unicode hex="0052"/>
  <outline>
    <contour>
      <point x="30" y="0" type="line"/>
      <point x="255" y="0" type="line"/>
      <point x="255" y="30" type="line"/>
      <point x="185" y="50" type="line"/>
      <point x="184" y="635" type="line"/>
      <point x="297" y="690" type="line"/>
      <point x="30" y="680" type="line"/>
      <point x="30" y="650" type="line"/>
      <point x="125" y="630" type="line"/>
      <point x="125" y="50" type="line"/>
      <point x="30" y="30" type="line"/>
    </contour>
    <contour>
      <point x="483" y="-13" type="curve"/>
      <point x="575" y="2" type="line"/>
      <point x="575" y="32" type="line"/>
      <point x="491" y="42" type="line"/>
      <point x="410" y="272" type="line"/>
      <point x="369" y="299" type="line"/>
      <point x="346" y="285" type="line"/>
      <point x="420" y="55" type="line" smooth="yes"/>
      <point x="432" y="18"/>
      <point x="441" y="-3"/>
    </contour>
    <contour>
      <point x="169" y="279" type="line"/>
      <point x="382" y="279" type="line"/>
      <point x="418" y="306" type="line"/>
      <point x="468" y="343" type="line"/>
      <point x="479" y="387"/>
      <point x="485" y="427"/>
      <point x="485" y="487" type="curve" smooth="yes"/>
      <point x="485" y="618"/>
      <point x="422" y="690"/>
      <point x="297" y="690" type="curve" smooth="yes"/>
      <point x="297" y="690"/>
      <point x="208" y="664"/>
      <point x="172" y="646" type="curve"/>
      <point x="172" y="629" type="line"/>
      <point x="194" y="633"/>
      <point x="242" y="635"/>
      <point x="297" y="635" type="curve" smooth="yes"/>
      <point x="383" y="635"/>
      <point x="425" y="574"/>
      <point x="425" y="478" type="curve" smooth="yes"/>
      <point x="425" y="418"/>
      <point x="417" y="363"/>
      <point x="404" y="319" type="curve"/>
      <point x="439" y="337" type="line"/>
      <point x="408" y="328"/>
      <point x="349" y="324"/>
      <point x="282" y="324" type="curve" smooth="yes"/>
      <point x="175" y="324" type="line"/>
    </contour>
  </outline>
</glyph>
<glyph name="S" format="2">
  <advance width="492"/>
  <unicode hex="0053"/>
  <outline>
    <contour>
      <point x="237" y="-10" type="curve" smooth="yes"/>
      <point x="317" y="-10"/>
      <point x="378" y="16"/>
      <point x="412" y="51" type="curve"/>
      <point x="442" y="104" type="line"/>
      <point x="442" y="143" type="line" smooth="yes"/>
      <point x="442" y="270"/>
      <point x="355" y="327"/>
      <point x="258" y="372" type="curve" smooth="yes"/>
      <point x="182" y="407"/>
      <point x="113" y="435"/>
      <point x="113" y="543" type="curve" smooth="yes"/>
      <point x="113" y="577" type="line"/>
      <point x="107" y="539" type="line"/>
      <point x="122" y="599"/>
      <point x="181" y="639"/>
      <point x="259" y="639" type="curve" smooth="yes"/>
      <point x="316" y="639"/>
      <point x="349" y="629"/>
      <point x="387" y="601" type="curve"/>
      <point x="366" y="630" type="line"/>
      <point x="383" y="481" type="line"/>
      <point x="413" y="481" type="line"/>
      <point x="432" y="637" type="line"/>
      <point x="403" y="665"/>
      <point x="345" y="689"/>
      <point x="262" y="689" type="curve" smooth="yes"/>
      <point x="173" y="689"/>
      <point x="112" y="651"/>
      <point x="77" y="604" type="curve"/>
      <point x="53" y="561" type="line"/>
      <point x="53" y="519" type="line" smooth="yes"/>
      <point x="53" y="418"/>
      <point x="132" y="369"/>
      <point x="213" y="332" type="curve" smooth="yes"/>
      <point x="308" y="288"/>
      <point x="382" y="252"/>
      <point x="382" y="117" type="curve" smooth="yes"/>
      <point x="382" y="65" type="line"/>
      <point x="394" y="102" type="line"/>
      <point x="365" y="68"/>
      <point x="317" y="40"/>
      <point x="240" y="40" type="curve" smooth="yes"/>
      <point x="158" y="40"/>
      <point x="119" y="57"/>
      <point x="77" y="88" type="curve"/>
      <point x="115" y="50" type="line"/>
      <point x="100" y="202" type="line"/>
      <point x="70" y="202" type="line"/>
      <point x="50" y="41" type="line"/>
      <point x="95" y="7"/>
      <point x="150" y="-10"/>
    </contour>
  </outline>
</glyph>
<glyph name="T" format="2">
  <advance width="548"/>
  <unicode hex="0054"/>
  <outline>
    <contour>
      <point x="139" y="0" type="line"/>
      <point x="409" y="0" type="line"/>
      <point x="409" y="30" type="line"/>
      <point x="304" y="50" type="line"/>
      <point x="304" y="635" type="line"/>
      <point x="455" y="635" type="line"/>
      <point x="483" y="495" type="line"/>
      <point x="513" y="495" type="line"/>
      <point x="513" y="670" type="line"/>
      <point x="498" y="685" type="line"/>
      <point x="274" y="680" type="line"/>
      <point x="50" y="685" type="line"/>
      <point x="35" y="670" type="line"/>
      <point x="35" y="495" type="line"/>
      <point x="65" y="495" type="line"/>
      <point x="93" y="635" type="line"/>
      <point x="244" y="635" type="line"/>
      <point x="244" y="50" type="line"/>
      <point x="139" y="30" type="line"/>
    </contour>
  </outline>
</glyph>
<glyph name="U" format="2">
  <advance width="602"/>
  <unicode hex="0055"/>
  <anchor x="504" y="10" name="ogonek"/>
  <anchor x="310" y="680" name="top"/>
  <anchor x="539" y="680" name="topright"/>
  <anchor x="285" y="0" name="bottom"/>
  <outline>
    <contour>
      <point x="308" y="-10" type="curve" smooth="yes"/>
      <point x="364" y="-10"/>
      <point x="417" y="1"/>
      <point x="433" y="8" type="curve"/>
      <point x="493" y="75" type="line"/>
      <point x="492" y="637" type="line"/>
      <point x="587" y="650" type="line"/>
      <point x="587" y="680" type="line"/>
      <point x="360" y="680" type="line"/>
      <point x="360" y="650" type="line"/>
      <point x="435" y="636" type="line"/>
      <point x="435" y="67" type="line"/>
      <point x="411" y="54"/>
      <point x="358" y="45"/>
      <point x="313" y="45" type="curve" smooth="yes"/>
      <point x="229" y="45"/>
      <point x="180" y="83"/>
      <point x="180" y="163" type="curve" smooth="yes"/>
      <point x="180" y="680" type="line"/>
      <point x="25" y="680" type="line"/>
      <point x="25" y="650" type="line"/>
      <point x="120" y="640" type="line"/>
      <point x="121" y="165" type="line" smooth="yes"/>
      <point x="121" y="46"/>
      <point x="191" y="-10"/>
    </contour>
  </outline>
</glyph>
<glyph name="V" format="2">
  <advance width="628"/>
  <unicode hex="0056"/>
  <outline>
    <contour>
      <point x="291" y="-5" type="line"/>
      <point x="358" y="0" type="line"/>
      <point x="538" y="630" type="line"/>
      <point x="628" y="650" type="line"/>
      <point x="628" y="680" type="line"/>
      <point x="394" y="680" type="line"/>
      <point x="394" y="650" type="line"/>
      <point x="484" y="632" type="line"/>
      <point x="318" y="31" type="line"/>
      <point x="299" y="31" type="line"/>
      <point x="287" y="10" type="line"/>
    </contour>
    <contour>
      <point x="287" y="10" type="line"/>
      <point x="342" y="20" type="line"/>
      <point x="171" y="636" type="line"/>
      <point x="261" y="650" type="line"/>
      <point x="261" y="680" type="line"/>
      <point x="20" y="680" type="line"/>
      <point x="20" y="650" type="line"/>
      <point x="110" y="630" type="line"/>
    </contour>
  </outline>
</glyph>
<glyph name="W" format="2">
  <advance width="923"/>
  <unicode hex="0057"/>
  <outline>
    <contour>
      <point x="20" y="650" type="line"/>
      <point x="110" y="630" type="line"/>
      <point x="267" y="-5" type="line"/>
      <point x="335" y="0" type="line"/>
      <point x="487" y="622" type="line"/>
      <point x="452" y="630" type="line"/>
      <point x="609" y="-5" type="line"/>
      <point x="676" y="0" type="line"/>
      <point x="833" y="630" type="line"/>
      <point x="923" y="650" type="line"/>
      <point x="923" y="680" type="line"/>
      <point x="689" y="680" type="line"/>
      <point x="689" y="650" type="line"/>
      <point x="779" y="632" type="line"/>
      <point x="636" y="31" type="line"/>
      <point x="660" y="31" type="line"/>
      <point x="500" y="682" type="line"/>
      <point x="450" y="680" type="line"/>
      <point x="295" y="31" type="line"/>
      <point x="318" y="35" type="line"/>
      <point x="171" y="636" type="line"/>
      <point x="261" y="650" type="line"/>
      <point x="261" y="680" type="line"/>
      <point x="20" y="680" type="line"/>
    </contour>
  </outline>
</glyph>
<glyph name="X" format="2">
  <advance width="657"/>
  <unicode hex="0058"/>
  <outline>
    <contour>
      <point x="300" y="366" type="line"/>
      <point x="109" y="50" type="line"/>
      <point x="20" y="30" type="line"/>
      <point x="20" y="0" type="line"/>
      <point x="262" y="0" type="line"/>
      <point x="262" y="30" type="line"/>
      <point x="167" y="50" type="line"/>
      <point x="339" y="336" type="line"/>
    </contour>
    <contour>
      <point x="317" y="363" type="line"/>
      <point x="356" y="335" type="line"/>
      <point x="534" y="630" type="line"/>
      <point x="623" y="650" type="line"/>
      <point x="623" y="680" type="line"/>
      <point x="378" y="680" type="line"/>
      <point x="378" y="650" type="line"/>
      <point x="474" y="632" type="line"/>
    </contour>
    <contour>
      <point x="35" y="650" type="line"/>
      <point x="135" y="630" type="line"/>
      <point x="307" y="325" type="line"/>
      <point x="315" y="320" type="line"/>
      <point x="502" y="-11" type="line"/>
      <point x="637" y="0" type="line"/>
      <point x="637" y="30" type="line"/>
      <point x="541" y="49" type="line"/>
      <point x="352" y="375" type="line"/>
      <point x="344" y="380" type="line"/>
      <point x="174" y="690" type="line"/>
      <point x="35" y="680" type="line"/>
    </contour>
  </outline>
</glyph>
<glyph name="Y" format="2">
  <advance width="648"/>
  <unicode hex="0059"/>
  <outline>
    <contour>
      <point x="199" y="0" type="line"/>
      <point x="469" y="0" type="line"/>
      <point x="469" y="30" type="line"/>
      <point x="364" y="50" type="line"/>
      <point x="364" y="228" type="line"/>
      <point x="559" y="630" type="line"/>
      <point x="648" y="650" type="line"/>
      <point x="648" y="680" type="line"/>
      <point x="403" y="680" type="line"/>
      <point x="403" y="650" type="line"/>
      <point x="499" y="632" type="line"/>
      <point x="320" y="252" type="line"/>
      <point x="350" y="252" type="line"/>
      <point x="184" y="630" type="line"/>
      <point x="280" y="650" type="line"/>
      <point x="280" y="680" type="line"/>
      <point x="20" y="680" type="line"/>
      <point x="20" y="650" type="line"/>
      <point x="114" y="630" type="line"/>
      <point x="304" y="228" type="line"/>
      <point x="304" y="50" type="line"/>
      <point x="199" y="30" type="line"/>
    </contour>
  </outline>
</glyph>
<glyph name="Z" format="2">
  <advance width="585"/>
  <unicode hex="005A"/>
  <outline>
    <contour>
      <point x="60" y="30" type="line"/>
      <point x="80" y="0" type="line"/>
      <point x="432" y="0" type="line"/>
      <point x="495" y="-2" type="line"/>
      <point x="525" y="28" type="line"/>
      <point x="525" y="223" type="line"/>
      <point x="495" y="223" type="line"/>
      <point x="452" y="12" type="line"/>
      <point x="500" y="55" type="line"/>
      <point x="100" y="55" type="line"/>
      <point x="137" y="37" type="line"/>
      <point x="520" y="650" type="line"/>
      <point x="500" y="680" type="line"/>
      <point x="110" y="685" type="line"/>
      <point x="80" y="655" type="line"/>
      <point x="80" y="460" type="line"/>
      <point x="110" y="460" type="line"/>
      <point x="152" y="671" type="line"/>
      <point x="105" y="628" type="line"/>
      <point x="465" y="628" type="line"/>
      <point x="445" y="646" type="line"/>
    </contour>
  </outline>
</glyph>
<glyph name="a" format="2">
  <advance width="467"/>
  <unicode hex="0061"/>
  <anchor x="420" y="10" name="ogonek"/>
  <anchor x="234" y="0" name="bottom"/>
  <anchor x="224" y="540" name="top"/>
  <outline>
    <contour>
      <point x="377" y="-10" type="curve"/>
      <point x="452" y="7" type="line"/>
      <point x="452" y="37" type="line"/>
      <point x="372" y="47" type="line"/>
      <point x="372" y="436" type="line"/>
      <point x="372" y="510"/>
      <point x="306" y="550"/>
      <point x="228" y="550" type="curve" smooth="yes"/>
      <point x="187" y="550"/>
      <point x="153" y="539"/>
      <point x="131" y="531" type="curve"/>
      <point x="63" y="483" type="line"/>
      <point x="82" y="452" type="line"/>
      <point x="123" y="477"/>
      <point x="175" y="495"/>
      <point x="219" y="495" type="curve" smooth="yes"/>
      <point x="265" y="495"/>
      <point x="303" y="483"/>
      <point x="323" y="452" type="curve"/>
      <point x="312" y="509" type="line"/>
      <point x="312" y="66" type="line"/>
      <point x="312" y="23"/>
      <point x="333" y="-7"/>
    </contour>
    <contour>
      <point x="192" y="-10" type="curve" smooth="yes"/>
      <point x="223" y="-10"/>
      <point x="248" y="-5"/>
      <point x="269" y="4" type="curve"/>
      <point x="331" y="69" type="line"/>
      <point x="317" y="100" type="line"/>
      <point x="285" y="66"/>
      <point x="253" y="40"/>
      <point x="200" y="40" type="curve" smooth="yes"/>
      <point x="142" y="40"/>
      <point x="110" y="78"/>
      <point x="110" y="149" type="curve" smooth="yes"/>
      <point x="110" y="175"/>
      <point x="111" y="199"/>
      <point x="117" y="222" type="curve"/>
      <point x="330" y="234" type="line"/>
      <point x="322" y="279" type="line"/>
      <point x="68" y="262" type="line"/>
      <point x="59" y="238"/>
      <point x="50" y="190"/>
      <point x="50" y="153" type="curve" smooth="yes"/>
      <point x="50" y="39"/>
      <point x="113" y="-10"/>
    </contour>
  </outline>
</glyph>
<glyph name="b" format="2">
  <advance width="516"/>
  <unicode hex="0062"/>
  <outline>
    <contour>
      <point x="281" y="-10" type="curve" smooth="yes"/>
      <point x="327" y="-10"/>
      <point x="355" y="0"/>
      <point x="377" y="15" type="curve"/>
      <point x="427" y="85" type="line"/>
      <point x="435" y="190"/>
      <point x="436" y="261"/>
      <point x="436" y="379" type="curve" smooth="yes"/>
      <point x="436" y="508"/>
      <point x="380" y="550"/>
      <point x="288" y="550" type="curve" smooth="yes"/>
      <point x="255" y="550"/>
      <point x="222" y="544"/>
      <point x="201" y="539" type="curve"/>
      <point x="143" y="476" type="line"/>
      <point x="143" y="464" type="line"/>
      <point x="188" y="487"/>
      <point x="228" y="495"/>
      <point x="271" y="495" type="curve" smooth="yes"/>
      <point x="343" y="495"/>
      <point x="377" y="463"/>
      <point x="377" y="380" type="curve" smooth="yes"/>
      <point x="377" y="252"/>
      <point x="375" y="170"/>
      <point x="367" y="55" type="curve"/>
      <point x="381" y="68" type="line"/>
      <point x="357" y="49"/>
      <point x="325" y="40"/>
      <point x="284" y="40" type="curve" smooth="yes"/>
      <point x="232" y="40"/>
      <point x="190" y="68"/>
      <point x="165" y="97" type="curve"/>
      <point x="146" y="78" type="line"/>
      <point x="175" y="27"/>
      <point x="213" y="-10"/>
    </contour>
    <contour>
      <point x="140" y="0" type="line"/>
      <point x="170" y="57" type="line"/>
      <point x="170" y="494" type="line"/>
      <point x="170" y="504" type="line"/>
      <point x="170" y="735" type="line"/>
      <point x="155" y="750" type="line"/>
      <point x="20" y="735" type="line"/>
      <point x="20" y="705" type="line"/>
      <point x="110" y="695" type="line"/>
      <point x="110" y="5" type="line"/>
    </contour>
  </outline>
</glyph>
<glyph name="c" format="2">
  <advance width="385"/>
  <unicode hex="0063"/>
  <outline>
    <contour>
      <point x="239" y="-10" type="curve" smooth="yes"/>
      <point x="269" y="-10"/>
      <point x="304" y="-3"/>
      <point x="324" y="8" type="curve"/>
      <point x="380" y="46" type="line"/>
      <point x="369" y="80" type="line"/>
      <point x="342" y="63"/>
      <point x="299" y="41"/>
      <point x="259" y="41" type="curve" smooth="yes"/>
      <point x="175" y="41"/>
      <point x="141" y="79"/>
      <point x="141" y="147" type="curve" smooth="yes"/>
      <point x="141" y="492" type="line"/>
      <point x="130" y="479" type="line"/>
      <point x="161" y="489"/>
      <point x="207" y="495"/>
      <point x="248" y="495" type="curve" smooth="yes"/>
      <point x="290" y="495"/>
      <point x="326" y="491"/>
      <point x="351" y="486" type="curve"/>
      <point x="361" y="539" type="line"/>
      <point x="338" y="546"/>
      <point x="300" y="550"/>
      <point x="263" y="550" type="curve" smooth="yes"/>
      <point x="213" y="550"/>
      <point x="167" y="544"/>
      <point x="140" y="537" type="curve"/>
      <point x="80" y="467" type="line"/>
      <point x="81" y="140" type="line" smooth="yes"/>
      <point x="81" y="46"/>
      <point x="146" y="-10"/>
    </contour>
  </outline>
</glyph>
<glyph name="d" format="2">
  <advance width="486"/>
  <unicode hex="0064"/>
  <outline>
    <contour>
      <point x="221" y="-10" type="curve" smooth="yes"/>
      <point x="284" y="-10"/>
      <point x="337" y="34"/>
      <point x="365" y="69" type="curve"/>
      <point x="350" y="99" type="line"/>
      <point x="326" y="70"/>
      <point x="283" y="40"/>
      <point x="230" y="40" type="curve" smooth="yes"/>
      <point x="191" y="40"/>
      <point x="157" y="56"/>
      <point x="138" y="83" type="curve"/>
      <point x="149" y="45" type="line"/>
      <point x="140" y="159"/>
      <point x="139" y="248"/>
      <point x="139" y="352" type="curve" smooth="yes"/>
      <point x="139" y="465"/>
      <point x="183" y="495"/>
      <point x="252" y="495" type="curve" smooth="yes"/>
      <point x="293" y="495"/>
      <point x="328" y="484"/>
      <point x="357" y="465" type="curve"/>
      <point x="373" y="487" type="line"/>
      <point x="312" y="538" type="line"/>
      <point x="297" y="545"/>
      <point x="267" y="550"/>
      <point x="242" y="550" type="curve" smooth="yes"/>
      <point x="157" y="550"/>
      <point x="80" y="503"/>
      <point x="80" y="365" type="curve" smooth="yes"/>
      <point x="80" y="263"/>
      <point x="80" y="177"/>
      <point x="89" y="65" type="curve"/>
      <point x="149" y="5" type="line"/>
      <point x="173" y="-4"/>
      <point x="188" y="-10"/>
    </contour>
    <contour>
      <point x="376" y="0" type="line"/>
      <point x="406" y="5" type="line"/>
      <point x="406" y="735" type="line"/>
      <point x="391" y="750" type="line"/>
      <point x="256" y="735" type="line"/>
      <point x="256" y="705" type="line"/>
      <point x="346" y="695" type="line"/>
      <point x="346" y="507" type="line"/>
      <point x="346" y="497" type="line"/>
      <point x="346" y="57" type="line"/>
    </contour>
  </outline>
</glyph>
<glyph name="e" format="2">
  <advance width="438"/>
  <unicode hex="0065"/>
  <anchor x="394" y="10" name="ogonek"/>
  <anchor x="219" y="0" name="bottom"/>
  <anchor x="242" y="540" name="top"/>
  <outline>
    <contour>
      <point x="258" y="-10" type="curve" smooth="yes"/>
      <point x="294" y="-10"/>
      <point x="320" y="-3"/>
      <point x="355" y="9" type="curve"/>
      <point x="423" y="57" type="line"/>
      <point x="404" y="88" type="line"/>
      <point x="371" y="69"/>
      <point x="320" y="45"/>
      <point x="266" y="45" type="curve" smooth="yes"/>
      <point x="189" y="45"/>
      <point x="140" y="89"/>
      <point x="140" y="175" type="curve" smooth="yes"/>
      <point x="140" y="482" type="line"/>
      <point x="134" y="474" type="line"/>
      <point x="164" y="486"/>
      <point x="205" y="495"/>
      <point x="250" y="495" type="curve" smooth="yes"/>
      <point x="305" y="495"/>
      <point x="348" y="478"/>
      <point x="372" y="433" type="curve"/>
      <point x="351" y="499" type="line"/>
      <point x="351" y="306" type="line"/>
      <point x="119" y="301" type="line"/>
      <point x="119" y="256" type="line"/>
      <point x="379" y="253" type="line"/>
      <point x="409" y="283" type="line"/>
      <point x="409" y="427" type="line" smooth="yes"/>
      <point x="409" y="501"/>
      <point x="360" y="550"/>
      <point x="259" y="550" type="curve" smooth="yes"/>
      <point x="208" y="550"/>
      <point x="169" y="540"/>
      <point x="139" y="531" type="curve"/>
      <point x="80" y="467" type="line"/>
      <point x="80" y="174" type="line" smooth="yes"/>
      <point x="80" y="46"/>
      <point x="163" y="-10"/>
    </contour>
  </outline>
</glyph>
<glyph name="f" format="2">
  <advance width="334"/>
  <unicode hex="0066"/>
  <outline>
    <contour>
      <point x="143" y="-10" type="line"/>
      <point x="187" y="0" type="line"/>
      <point x="187" y="442" type="line"/>
      <point x="187" y="467" type="line"/>
      <point x="187" y="687" type="line"/>
      <point x="179" y="674" type="line"/>
      <point x="200" y="683"/>
      <point x="240" y="692"/>
      <point x="274" y="692" type="curve" smooth="yes"/>
      <point x="300" y="692"/>
      <point x="332" y="688"/>
      <point x="351" y="684" type="curve"/>
      <point x="364" y="737" type="line"/>
      <point x="345" y="741"/>
      <point x="316" y="745"/>
      <point x="295" y="745" type="curve" smooth="yes"/>
      <point x="243" y="745"/>
      <point x="207" y="738"/>
      <point x="187" y="732" type="curve"/>
      <point x="127" y="662" type="line"/>
      <point x="128" y="5" type="line"/>
    </contour>
    <contour>
      <point x="316" y="430" type="line"/>
      <point x="337" y="445" type="line"/>
      <point x="337" y="480" type="line"/>
      <point x="56" y="474" type="line"/>
      <point x="45" y="464" type="line"/>
      <point x="48" y="435" type="line"/>
    </contour>
  </outline>
</glyph>
<glyph name="g" format="2">
  <advance width="463"/>
  <unicode hex="0067"/>
  <outline>
    <contour>
      <point x="238" y="54" type="curve" smooth="yes"/>
      <point x="292" y="54"/>
      <point x="329" y="61"/>
      <point x="344" y="69" type="curve"/>
      <point x="404" y="139" type="line"/>
      <point x="403" y="550" type="line"/>
      <point x="373" y="550" type="line"/>
      <point x="343" y="483" type="line"/>
      <point x="343" y="109" type="line"/>
      <point x="353" y="122" type="line"/>
      <point x="329" y="111"/>
      <point x="302" y="104"/>
      <point x="246" y="104" type="curve" smooth="yes"/>
      <point x="167" y="104"/>
      <point x="136" y="143"/>
      <point x="136" y="222" type="curve" smooth="yes"/>
      <point x="136" y="495" type="line"/>
      <point x="122" y="482" type="line"/>
      <point x="158" y="494"/>
      <point x="187" y="500"/>
      <point x="230" y="500" type="curve" smooth="yes"/>
      <point x="302" y="500"/>
      <point x="352" y="463"/>
      <point x="358" y="453" type="curve"/>
      <point x="377" y="472" type="line"/>
      <point x="353" y="511"/>
      <point x="305" y="550"/>
      <point x="242" y="550" type="curve" smooth="yes"/>
      <point x="188" y="550"/>
      <point x="151" y="543"/>
      <point x="136" y="535" type="curve"/>
      <point x="76" y="465" type="line"/>
      <point x="76" y="229" type="line" smooth="yes"/>
      <point x="76" y="110"/>
      <point x="132" y="54"/>
    </contour>
    <contour>
      <point x="388" y="-201" type="line"/>
      <point x="418" y="-200" type="line"/>
      <point x="433" y="-140" type="line"/>
      <point x="425" y="-112"/>
      <point x="396" y="-92"/>
      <point x="345" y="-92" type="curve" smooth="yes"/>
      <point x="102" y="-92" type="line"/>
      <point x="113" y="-109" type="line"/>
      <point x="116" y="-95" type="line"/>
      <point x="129" y="-35"/>
      <point x="155" y="23"/>
      <point x="178" y="72" type="curve"/>
      <point x="145" y="85" type="line"/>
      <point x="66" y="-63" type="line"/>
      <point x="62" y="-76"/>
      <point x="60" y="-83"/>
      <point x="60" y="-97" type="curve" smooth="yes"/>
      <point x="60" y="-121"/>
      <point x="73" y="-142"/>
      <point x="99" y="-150" type="curve"/>
      <point x="368" y="-150" type="line"/>
    </contour>
  </outline>
</glyph>
<glyph name="h" format="2">
  <advance width="543"/>
  <unicode hex="0068"/>
  <outline>
    <contour>
      <point x="428" y="-10" type="curve"/>
      <point x="528" y="7" type="line"/>
      <point x="528" y="37" type="line"/>
      <point x="438" y="47" type="line"/>
      <point x="438" y="421" type="line" smooth="yes"/>
      <point x="438" y="508"/>
      <point x="384" y="552"/>
      <point x="300" y="552" type="curve" smooth="yes"/>
      <point x="273" y="552"/>
      <point x="245" y="548"/>
      <point x="222" y="540" type="curve"/>
      <point x="161" y="488" type="line"/>
      <point x="160" y="450" type="line"/>
      <point x="190" y="477"/>
      <point x="243" y="497"/>
      <point x="289" y="497" type="curve" smooth="yes"/>
      <point x="324" y="497"/>
      <point x="353" y="489"/>
      <point x="378" y="468" type="curve"/>
      <point x="378" y="81" type="line" smooth="yes"/>
      <point x="378" y="35"/>
      <point x="391" y="0"/>
    </contour>
    <contour>
      <point x="125" y="-5" type="line"/>
      <point x="170" y="0" type="line"/>
      <point x="170" y="474" type="line"/>
      <point x="170" y="483" type="line"/>
      <point x="170" y="735" type="line"/>
      <point x="155" y="750" type="line"/>
      <point x="20" y="735" type="line"/>
      <point x="20" y="705" type="line"/>
      <point x="110" y="695" type="line"/>
      <point x="110" y="10" type="line"/>
    </contour>
  </outline>
</glyph>
<glyph name="j" format="2">
  <advance width="254"/>
  <unicode hex="006A"/>
  <outline>
    <contour>
      <point x="52" y="-210" type="line"/>
      <point x="110" y="-148"/>
      <point x="170" y="-84"/>
      <point x="170" y="5" type="curve" smooth="yes"/>
      <point x="170" y="535" type="line"/>
      <point x="155" y="550" type="line"/>
      <point x="20" y="535" type="line"/>
      <point x="20" y="505" type="line"/>
      <point x="110" y="495" type="line"/>
      <point x="110" y="-10" type="line"/>
      <point x="99" y="-65"/>
      <point x="51" y="-145"/>
      <point x="22" y="-183" type="curve"/>
    </contour>
    <contour>
      <point x="170" y="664" type="curve"/>
      <point x="179" y="678"/>
      <point x="184" y="695"/>
      <point x="184" y="714" type="curve" smooth="yes"/>
      <point x="184" y="729"/>
      <point x="182" y="742"/>
      <point x="176" y="753" type="curve"/>
      <point x="157" y="756"/>
      <point x="118" y="750"/>
      <point x="98" y="744" type="curve"/>
      <point x="94" y="721"/>
      <point x="96" y="688"/>
      <point x="102" y="670" type="curve"/>
      <point x="123" y="661"/>
      <point x="146" y="660"/>
    </contour>
  </outline>
</glyph>
<glyph name="k" format="2">
  <advance width="496"/>
  <unicode hex="006B"/>
  <outline>
    <contour>
      <point x="313" y="296" type="line"/>
      <point x="272" y="313" type="line"/>
      <point x="253" y="313" type="line"/>
      <point x="250" y="291" type="line"/>
      <point x="350" y="54" type="line" smooth="yes"/>
      <point x="363" y="23"/>
      <point x="382" y="-4"/>
      <point x="415" y="-10" type="curve"/>
      <point x="506" y="7" type="line"/>
      <point x="506" y="37" type="line"/>
      <point x="421" y="48" type="line"/>
    </contour>
    <contour>
      <point x="125" y="-10" type="line"/>
      <point x="170" y="0" type="line"/>
      <point x="170" y="735" type="line"/>
      <point x="155" y="750" type="line"/>
      <point x="20" y="740" type="line"/>
      <point x="20" y="710" type="line"/>
      <point x="110" y="700" type="line"/>
      <point x="110" y="5" type="line"/>
    </contour>
    <contour>
      <point x="148" y="153" type="line"/>
      <point x="466" y="510" type="line"/>
      <point x="461" y="540" type="line"/>
      <point x="297" y="540" type="line"/>
      <point x="295" y="510" type="line"/>
      <point x="379" y="490" type="line"/>
      <point x="148" y="209" type="line"/>
    </contour>
  </outline>
</glyph>
<glyph name="l" format="2">
  <advance width="280"/>
  <unicode hex="006C"/>
  <outline>
    <contour>
      <point x="160" y="-10" type="curve"/>
      <point x="260" y="7" type="line"/>
      <point x="260" y="37" type="line"/>
      <point x="170" y="47" type="line"/>
      <point x="170" y="735" type="line"/>
      <point x="155" y="750" type="line"/>
      <point x="20" y="733" type="line"/>
      <point x="20" y="703" type="line"/>
      <point x="110" y="693" type="line"/>
      <point x="110" y="81" type="line" smooth="yes"/>
      <point x="110" y="35"/>
      <point x="123" y="0"/>
    </contour>
  </outline>
</glyph>
<glyph name="m" format="2">
  <advance width="786"/>
  <unicode hex="006D"/>
  <outline>
    <contour>
      <point x="671" y="-10" type="curve"/>
      <point x="771" y="7" type="line"/>
      <point x="771" y="37" type="line"/>
      <point x="681" y="47" type="line"/>
      <point x="681" y="424" type="line" smooth="yes"/>
      <point x="681" y="511"/>
      <point x="630" y="557"/>
      <point x="551" y="557" type="curve" smooth="yes"/>
      <point x="526" y="557"/>
      <point x="495" y="553"/>
      <point x="470" y="546" type="curve"/>
      <point x="409" y="493" type="line"/>
      <point x="408" y="455" type="line"/>
      <point x="436" y="480"/>
      <point x="491" y="502"/>
      <point x="537" y="502" type="curve" smooth="yes"/>
      <point x="572" y="502"/>
      <point x="597" y="493"/>
      <point x="621" y="473" type="curve"/>
      <point x="621" y="88" type="line" smooth="yes"/>
      <point x="621" y="45"/>
      <point x="627" y="3"/>
    </contour>
    <contour>
      <point x="125" y="-5" type="line"/>
      <point x="170" y="0" type="line"/>
      <point x="170" y="479" type="line" smooth="yes"/>
      <point x="170" y="495"/>
      <point x="151" y="537"/>
      <point x="130" y="550" type="curve"/>
      <point x="20" y="533" type="line"/>
      <point x="20" y="503" type="line"/>
      <point x="110" y="493" type="line"/>
      <point x="110" y="10" type="line"/>
    </contour>
    <contour>
      <point x="383" y="-5" type="line"/>
      <point x="428" y="0" type="line"/>
      <point x="428" y="424" type="line"/>
      <point x="428" y="511"/>
      <point x="373" y="555"/>
      <point x="293" y="555" type="curve" smooth="yes"/>
      <point x="268" y="555"/>
      <point x="241" y="551"/>
      <point x="216" y="544" type="curve"/>
      <point x="151" y="493" type="line"/>
      <point x="150" y="455" type="line"/>
      <point x="174" y="477"/>
      <point x="232" y="500"/>
      <point x="278" y="500" type="curve" smooth="yes"/>
      <point x="308" y="500"/>
      <point x="342" y="493"/>
      <point x="368" y="475" type="curve"/>
      <point x="368" y="10" type="line"/>
    </contour>
  </outline>
</glyph>
<glyph name="n" format="2">
  <advance width="543"/>
  <unicode hex="006E"/>
  <anchor x="270" y="540" name="top"/>
  <anchor x="270" y="0" name="bottom"/>
  <outline>
    <contour>
      <point x="428" y="-10" type="curve"/>
      <point x="528" y="7" type="line"/>
      <point x="528" y="37" type="line"/>
      <point x="438" y="47" type="line"/>
      <point x="438" y="426" type="line" smooth="yes"/>
      <point x="438" y="513"/>
      <point x="384" y="557"/>
      <point x="300" y="557" type="curve" smooth="yes"/>
      <point x="273" y="557"/>
      <point x="245" y="553"/>
      <point x="222" y="545" type="curve"/>
      <point x="161" y="493" type="line"/>
      <point x="160" y="455" type="line"/>
      <point x="190" y="482"/>
      <point x="243" y="502"/>
      <point x="289" y="502" type="curve" smooth="yes"/>
      <point x="324" y="502"/>
      <point x="353" y="494"/>
      <point x="378" y="473" type="curve"/>
      <point x="378" y="81" type="line" smooth="yes"/>
      <point x="378" y="35"/>
      <point x="391" y="0"/>
    </contour>
    <contour>
      <point x="125" y="-5" type="line"/>
      <point x="170" y="0" type="line"/>
      <point x="170" y="479" type="line"/>
      <point x="166" y="508"/>
      <point x="145" y="542"/>
      <point x="130" y="550" type="curve"/>
      <point x="20" y="533" type="line"/>
      <point x="20" y="503" type="line"/>
      <point x="110" y="493" type="line"/>
      <point x="110" y="10" type="line"/>
    </contour>
  </outline>
</glyph>
<glyph name="o" format="2">
  <advance width="487"/>
  <unicode hex="006F"/>
  <anchor x="244" y="270" name="center"/>
  <anchor x="438" y="10" name="ogonek"/>
  <anchor x="244" y="540" name="top"/>
  <anchor x="467" y="540" name="topright"/>
  <anchor x="244" y="0" name="bottom"/>
  <outline>
    <contour>
      <point x="241" y="-10" type="curve" smooth="yes"/>
      <point x="295" y="-10"/>
      <point x="332" y="-3"/>
      <point x="347" y="5" type="curve"/>
      <point x="407" y="75" type="line"/>
      <point x="406" y="385" type="line" smooth="yes"/>
      <point x="406" y="506"/>
      <point x="353" y="550"/>
      <point x="253" y="550" type="curve" smooth="yes"/>
      <point x="196" y="550"/>
      <point x="160" y="543"/>
      <point x="140" y="537" type="curve"/>
      <point x="80" y="467" type="line"/>
      <point x="81" y="165" type="line" smooth="yes"/>
      <point x="81" y="46"/>
      <point x="134" y="-10"/>
    </contour>
    <contour>
      <point x="351" y="45" type="line"/>
      <point x="361" y="58" type="line"/>
      <point x="335" y="47"/>
      <point x="297" y="40"/>
      <point x="249" y="40" type="curve" smooth="yes"/>
      <point x="170" y="40"/>
      <point x="136" y="71"/>
      <point x="136" y="155" type="curve" smooth="yes"/>
      <point x="136" y="495" type="line"/>
      <point x="126" y="482" type="line"/>
      <point x="148" y="491"/>
      <point x="187" y="500"/>
      <point x="236" y="500" type="curve" smooth="yes"/>
      <point x="315" y="500"/>
      <point x="351" y="472"/>
      <point x="351" y="391" type="curve" smooth="yes"/>
    </contour>
  </outline>
</glyph>
<glyph name="p" format="2">
  <advance width="507"/>
  <unicode hex="0070"/>
  <outline>
    <contour>
      <point x="261" y="-10" type="curve" smooth="yes"/>
      <point x="311" y="-10"/>
      <point x="330" y="-3"/>
      <point x="357" y="5" type="curve"/>
      <point x="418" y="75" type="line"/>
      <point x="424" y="154"/>
      <point x="427" y="234"/>
      <point x="427" y="306" type="curve" smooth="yes"/>
      <point x="427" y="528"/>
      <point x="378" y="557"/>
      <point x="285" y="557" type="curve" smooth="yes"/>
      <point x="242" y="557"/>
      <point x="220" y="548"/>
      <point x="208" y="544" type="curve"/>
      <point x="151" y="493" type="line"/>
      <point x="150" y="455" type="line"/>
      <point x="176" y="478"/>
      <point x="218" y="501"/>
      <point x="256" y="501" type="curve" smooth="yes"/>
      <point x="340" y="501"/>
      <point x="367" y="474"/>
      <point x="367" y="292" type="curve" smooth="yes"/>
      <point x="367" y="215"/>
      <point x="364" y="118"/>
      <point x="357" y="45" type="curve"/>
      <point x="381" y="58" type="line"/>
      <point x="355" y="48"/>
      <point x="315" y="40"/>
      <point x="273" y="40" type="curve" smooth="yes"/>
      <point x="218" y="40"/>
      <point x="178" y="58"/>
      <point x="145" y="87" type="curve"/>
      <point x="126" y="68" type="line"/>
      <point x="151" y="29"/>
      <point x="202" y="-10"/>
    </contour>
    <contour>
      <point x="115" y="-205" type="line"/>
      <point x="160" y="-200" type="line"/>
      <point x="160" y="48" type="line"/>
      <point x="160" y="63" type="line"/>
      <point x="160" y="479" type="line" smooth="yes"/>
      <point x="160" y="495"/>
      <point x="143" y="539"/>
      <point x="110" y="550" type="curve"/>
      <point x="10" y="533" type="line"/>
      <point x="10" y="503" type="line"/>
      <point x="100" y="493" type="line"/>
      <point x="100" y="-190" type="line"/>
    </contour>
  </outline>
</glyph>
<glyph name="q" format="2">
  <advance width="487"/>
  <unicode hex="0071"/>
  <outline>
    <contour>
      <point x="225" y="-10" type="curve" smooth="yes"/>
      <point x="261" y="-10"/>
      <point x="289" y="-2"/>
      <point x="304" y="4" type="curve"/>
      <point x="366" y="69" type="line"/>
      <point x="352" y="100" type="line"/>
      <point x="327" y="71"/>
      <point x="290" y="40"/>
      <point x="243" y="40" type="curve" smooth="yes"/>
      <point x="173" y="40"/>
      <point x="141" y="84"/>
      <point x="141" y="159" type="curve" smooth="yes"/>
      <point x="141" y="495" type="line"/>
      <point x="126" y="482" type="line"/>
      <point x="153" y="495"/>
      <point x="188" y="500"/>
      <point x="228" y="500" type="curve" smooth="yes"/>
      <point x="288" y="500"/>
      <point x="328" y="482"/>
      <point x="362" y="453" type="curve"/>
      <point x="381" y="472" type="line"/>
      <point x="357" y="511"/>
      <point x="302" y="550"/>
      <point x="234" y="550" type="curve" smooth="yes"/>
      <point x="194" y="550"/>
      <point x="155" y="543"/>
      <point x="140" y="535" type="curve"/>
      <point x="80" y="465" type="line"/>
      <point x="81" y="155" type="line" smooth="yes"/>
      <point x="81" y="40"/>
      <point x="144" y="-10"/>
    </contour>
    <contour>
      <point x="362" y="-205" type="line"/>
      <point x="407" y="-200" type="line"/>
      <point x="407" y="540" type="line"/>
      <point x="377" y="540" type="line"/>
      <point x="347" y="483" type="line"/>
      <point x="347" y="51" type="line"/>
      <point x="347" y="42" type="line"/>
      <point x="347" y="-190" type="line"/>
    </contour>
  </outline>
</glyph>
<glyph name="r" format="2">
  <advance width="345"/>
  <unicode hex="0072"/>
  <outline>
    <contour>
      <point x="125" y="-5" type="line"/>
      <point x="170" y="0" type="line"/>
      <point x="170" y="479" type="line" smooth="yes"/>
      <point x="170" y="495"/>
      <point x="153" y="533"/>
      <point x="130" y="550" type="curve"/>
      <point x="20" y="533" type="line"/>
      <point x="20" y="503" type="line"/>
      <point x="110" y="493" type="line"/>
      <point x="110" y="10" type="line"/>
    </contour>
    <contour>
      <point x="160" y="471" type="line"/>
      <point x="190" y="484"/>
      <point x="224" y="495"/>
      <point x="270" y="495" type="curve" smooth="yes"/>
      <point x="289" y="495"/>
      <point x="308" y="494"/>
      <point x="322" y="492" type="curve"/>
      <point x="330" y="547" type="line"/>
      <point x="317" y="550"/>
      <point x="299" y="551"/>
      <point x="280" y="551" type="curve" smooth="yes"/>
      <point x="255" y="551"/>
      <point x="231" y="547"/>
      <point x="206" y="540" type="curve"/>
      <point x="161" y="485" type="line"/>
    </contour>
  </outline>
</glyph>
<glyph name="s" format="2">
  <advance width="388"/>
  <unicode hex="0073"/>
  <outline>
    <contour>
      <point x="186" y="-13" type="curve" smooth="yes"/>
      <point x="249" y="-13"/>
      <point x="290" y="7"/>
      <point x="323" y="38" type="curve"/>
      <point x="346" y="77" type="line"/>
      <point x="348" y="117" type="line" smooth="yes"/>
      <point x="353" y="213"/>
      <point x="321" y="250"/>
      <point x="215" y="298" type="curve" smooth="yes"/>
      <point x="135" y="334"/>
      <point x="110" y="349"/>
      <point x="110" y="419" type="curve" smooth="yes"/>
      <point x="110" y="468" type="line"/>
      <point x="98" y="439" type="line"/>
      <point x="112" y="468"/>
      <point x="148" y="493"/>
      <point x="215" y="493" type="curve" smooth="yes"/>
      <point x="261" y="493"/>
      <point x="284" y="486"/>
      <point x="321" y="471" type="curve"/>
      <point x="341" y="523" type="line"/>
      <point x="313" y="540"/>
      <point x="278" y="549"/>
      <point x="227" y="549" type="curve" smooth="yes"/>
      <point x="147" y="549"/>
      <point x="101" y="524"/>
      <point x="62" y="474" type="curve"/>
      <point x="50" y="441" type="line"/>
      <point x="50" y="405" type="line" smooth="yes"/>
      <point x="50" y="314"/>
      <point x="103" y="288"/>
      <point x="181" y="251" type="curve" smooth="yes"/>
      <point x="255" y="216"/>
      <point x="292" y="199"/>
      <point x="292" y="109" type="curve" smooth="yes"/>
      <point x="292" y="85"/>
      <point x="289" y="61"/>
      <point x="284" y="37" type="curve"/>
      <point x="307" y="78" type="line"/>
      <point x="274" y="47"/>
      <point x="234" y="42"/>
      <point x="194" y="42" type="curve" smooth="yes"/>
      <point x="141" y="42"/>
      <point x="100" y="56"/>
      <point x="56" y="80" type="curve"/>
      <point x="45" y="22" type="line"/>
      <point x="81" y="3"/>
      <point x="123" y="-13"/>
    </contour>
  </outline>
</glyph>
<glyph name="t" format="2">
  <advance width="358"/>
  <unicode hex="0074"/>
  <outline>
    <contour>
      <point x="238" y="-10" type="curve" smooth="yes"/>
      <point x="259" y="-10"/>
      <point x="274" y="-9"/>
      <point x="288" y="-7" type="curve"/>
      <point x="353" y="18" type="line"/>
      <point x="353" y="52" type="line"/>
      <point x="317" y="44"/>
      <point x="305" y="41"/>
      <point x="258" y="41" type="curve" smooth="yes"/>
      <point x="205" y="41"/>
      <point x="175" y="76"/>
      <point x="175" y="157" type="curve" smooth="yes"/>
      <point x="175" y="640" type="line"/>
      <point x="160" y="655" type="line"/>
      <point x="115" y="640" type="line"/>
      <point x="115" y="142" type="line" smooth="yes"/>
      <point x="115" y="38"/>
      <point x="172" y="-10"/>
    </contour>
    <contour>
      <point x="322" y="490" type="line"/>
      <point x="343" y="505" type="line"/>
      <point x="343" y="540" type="line"/>
      <point x="26" y="534" type="line"/>
      <point x="15" y="524" type="line"/>
      <point x="18" y="495" type="line"/>
    </contour>
  </outline>
</glyph>
<glyph name="u" format="2">
  <advance width="533"/>
  <unicode hex="0075"/>
  <anchor x="480" y="10" name="ogonek"/>
  <anchor x="267" y="540" name="top"/>
  <anchor x="513" y="540" name="topright"/>
  <anchor x="267" y="0" name="bottom"/>
  <outline>
    <contour>
      <point x="255" y="-11" type="curve" smooth="yes"/>
      <point x="282" y="-11"/>
      <point x="314" y="-5"/>
      <point x="335" y="4" type="curve"/>
      <point x="397" y="69" type="line"/>
      <point x="383" y="100" type="line"/>
      <point x="353" y="65"/>
      <point x="318" y="40"/>
      <point x="265" y="40" type="curve" smooth="yes"/>
      <point x="222" y="40"/>
      <point x="190" y="54"/>
      <point x="170" y="89" type="curve"/>
      <point x="170" y="479" type="line" smooth="yes"/>
      <point x="170" y="495"/>
      <point x="151" y="537"/>
      <point x="130" y="550" type="curve"/>
      <point x="20" y="533" type="line"/>
      <point x="20" y="503" type="line"/>
      <point x="110" y="493" type="line"/>
      <point x="110" y="120" type="line" smooth="yes"/>
      <point x="110" y="33"/>
      <point x="178" y="-11"/>
    </contour>
    <contour>
      <point x="443" y="-10" type="curve"/>
      <point x="518" y="7" type="line"/>
      <point x="518" y="37" type="line"/>
      <point x="438" y="47" type="line"/>
      <point x="438" y="535" type="line"/>
      <point x="423" y="550" type="line"/>
      <point x="288" y="540" type="line"/>
      <point x="288" y="510" type="line"/>
      <point x="378" y="500" type="line"/>
      <point x="378" y="61" type="line" smooth="yes"/>
      <point x="378" y="25"/>
      <point x="399" y="-7"/>
    </contour>
  </outline>
</glyph>
<glyph name="v" format="2">
  <advance width="472"/>
  <unicode hex="0076"/>
  <outline>
    <contour>
      <point x="239" y="-10" type="curve" smooth="yes"/>
      <point x="256" y="-10"/>
      <point x="272" y="-5"/>
      <point x="280" y="-1" type="curve"/>
      <point x="265" y="28" type="line"/>
      <point x="254" y="55"/>
      <point x="255" y="36"/>
      <point x="252" y="45" type="curve" smooth="yes"/>
      <point x="103" y="545" type="line"/>
      <point x="-15" y="531" type="line"/>
      <point x="-15" y="501" type="line"/>
      <point x="60" y="486" type="line"/>
      <point x="189" y="50" type="line" smooth="yes"/>
      <point x="202" y="5"/>
      <point x="213" y="-10"/>
    </contour>
    <contour>
      <point x="280" y="-1" type="line"/>
      <point x="442" y="510" type="line"/>
      <point x="437" y="540" type="line"/>
      <point x="289" y="540" type="line"/>
      <point x="286" y="510" type="line"/>
      <point x="377" y="490" type="line"/>
      <point x="246" y="28" type="line"/>
    </contour>
  </outline>
</glyph>
<glyph name="w" format="2">
  <advance width="723"/>
  <unicode hex="0077"/>
  <outline>
    <contour>
      <point x="219" y="-10" type="curve" smooth="yes"/>
      <point x="236" y="-10"/>
      <point x="254" y="-5"/>
      <point x="262" y="-1" type="curve"/>
      <point x="246" y="28" type="line"/>
      <point x="240" y="43"/>
      <point x="234" y="39"/>
      <point x="232" y="45" type="curve"/>
      <point x="103" y="545" type="line"/>
      <point x="-15" y="531" type="line"/>
      <point x="-15" y="502" type="line"/>
      <point x="60" y="486" type="line"/>
      <point x="169" y="50" type="line" smooth="yes"/>
      <point x="180" y="5"/>
      <point x="198" y="-10"/>
    </contour>
    <contour>
      <point x="262" y="-1" type="line"/>
      <point x="378" y="509" type="line"/>
      <point x="392" y="545" type="line"/>
      <point x="338" y="540" type="line"/>
      <point x="223" y="28" type="line"/>
    </contour>
    <contour>
      <point x="505" y="-10" type="curve" smooth="yes"/>
      <point x="522" y="-10"/>
      <point x="538" y="-5"/>
      <point x="546" y="-1" type="curve"/>
      <point x="531" y="28" type="line"/>
      <point x="528" y="28"/>
      <point x="521" y="36"/>
      <point x="518" y="45" type="curve"/>
      <point x="392" y="545" type="line"/>
      <point x="338" y="540" type="line"/>
      <point x="354" y="467" type="line"/>
      <point x="455" y="51" type="line" smooth="yes"/>
      <point x="466" y="7"/>
      <point x="484" y="-10"/>
    </contour>
    <contour>
      <point x="546" y="-1" type="line"/>
      <point x="693" y="510" type="line"/>
      <point x="688" y="540" type="line"/>
      <point x="546" y="540" type="line"/>
      <point x="543" y="510" type="line"/>
      <point x="628" y="490" type="line"/>
      <point x="510" y="28" type="line"/>
    </contour>
  </outline>
</glyph>
<glyph name="x" format="2">
  <advance width="472"/>
  <unicode hex="0078"/>
  <outline>
    <contour>
      <point x="242" y="288" type="line"/>
      <point x="272" y="261" type="line"/>
      <point x="437" y="510" type="line"/>
      <point x="432" y="540" type="line"/>
      <point x="284" y="540" type="line"/>
      <point x="281" y="510" type="line"/>
      <point x="364" y="490" type="line"/>
    </contour>
    <contour>
      <point x="5" y="501" type="line"/>
      <point x="76" y="486" type="line"/>
      <point x="220" y="244" type="line"/>
      <point x="225" y="239" type="line"/>
      <point x="333" y="43" type="line" smooth="yes"/>
      <point x="352" y="9"/>
      <point x="360" y="0"/>
      <point x="387" y="-6" type="curve"/>
      <point x="467" y="9" type="line"/>
      <point x="467" y="39" type="line"/>
      <point x="397" y="54" type="line"/>
      <point x="257" y="295" type="line"/>
      <point x="252" y="300" type="line"/>
      <point x="113" y="545" type="line"/>
      <point x="5" y="531" type="line"/>
    </contour>
    <contour>
      <point x="231" y="251" type="line"/>
      <point x="201" y="281" type="line"/>
      <point x="35" y="30" type="line"/>
      <point x="40" y="0" type="line"/>
      <point x="188" y="0" type="line"/>
      <point x="190" y="30" type="line"/>
      <point x="107" y="45" type="line"/>
    </contour>
  </outline>
</glyph>
<glyph name="y" format="2">
  <advance width="452"/>
  <unicode hex="0079"/>
  <outline>
    <contour>
      <point x="43" y="-210" type="line"/>
      <point x="78" y="-206"/>
      <point x="135" y="-199"/>
      <point x="173" y="-174" type="curve" smooth="yes"/>
      <point x="211" y="-149"/>
      <point x="244" y="-73"/>
      <point x="263" y="-15" type="curve" smooth="yes"/>
      <point x="432" y="510" type="line"/>
      <point x="427" y="540" type="line"/>
      <point x="279" y="540" type="line"/>
      <point x="276" y="510" type="line"/>
      <point x="364" y="490" type="line"/>
      <point x="236" y="27" type="line"/>
      <point x="247" y="29" type="line"/>
      <point x="93" y="545" type="line"/>
      <point x="-25" y="531" type="line"/>
      <point x="-25" y="501" type="line"/>
      <point x="50" y="486" type="line"/>
      <point x="195" y="0" type="line"/>
      <point x="228" y="-11" type="line"/>
      <point x="224" y="-2" type="line"/>
      <point x="203" y="-47"/>
      <point x="171" y="-107"/>
      <point x="146" y="-136" type="curve"/>
      <point x="112" y="-153"/>
      <point x="67" y="-170"/>
      <point x="36" y="-179" type="curve"/>
    </contour>
  </outline>
</glyph>
<glyph name="z" format="2">
  <advance width="387"/>
  <unicode hex="007A"/>
  <outline>
    <contour>
      <point x="362" y="510" type="line"/>
      <point x="352" y="540" type="line"/>
      <point x="35" y="545" type="line"/>
      <point x="20" y="530" type="line"/>
      <point x="30" y="399" type="line"/>
      <point x="60" y="399" type="line"/>
      <point x="70" y="488" type="line"/>
      <point x="336" y="490" type="line"/>
      <point x="313" y="529" type="line"/>
      <point x="29" y="30" type="line"/>
      <point x="38" y="0" type="line"/>
      <point x="347" y="0" type="line"/>
      <point x="362" y="15" type="line"/>
      <point x="357" y="55" type="line"/>
      <point x="51" y="55" type="line"/>
      <point x="73" y="16" type="line"/>
    </contour>
  </outline>
</glyph>
<glyph name="dotlessi" format="2">
  <advance width="280"/>
  <unicode hex="0131"/>
  <anchor x="252" y="10" name="ogonek"/>
  <anchor x="140" y="0" name="bottom"/>
  <anchor x="139" y="540" name="top"/>
  <outline>
    <contour>
      <point x="160" y="-10" type="curve"/>
      <point x="260" y="7" type="line"/>
      <point x="260" y="37" type="line"/>
      <point x="170" y="47" type="line"/>
      <point x="170" y="535" type="line"/>
      <point x="155" y="550" type="line"/>
      <point x="20" y="533" type="line"/>
      <point x="20" y="503" type="line"/>
      <point x="110" y="493" type="line"/>
      <point x="110" y="81" type="line" smooth="yes"/>
      <point x="110" y="35"/>
      <point x="123" y="0"/>
    </contour>
  </outline>
</glyph>
<glyph name="acutecomb" format="2">
  <advance width="335"/>
  <unicode hex="0301"/>
  <anchor x="166" y="758" name="top"/>
  <anchor x="166" y="500" name="_top"/>
  <outline>
    <contour>
      <point x="291" y="707" type="curve"/>
      <point x="289" y="731"/>
      <point x="274" y="759"/>
      <point x="253" y="766" type="curve"/>
      <point x="184" y="718"/>
      <point x="114" y="669"/>
      <point x="45" y="621" type="curve"/>
      <point x="60" y="595" type="line"/>
      <point x="137" y="634"/>
      <point x="214" y="668"/>
    </contour>
  </outline>
</glyph>
<glyph name="tildecomb" format="2">
  <advance width="463"/>
  <unicode hex="0303"/>
  <anchor x="237" y="749" name="top"/>
  <anchor x="237" y="540" name="_top"/>
  <outline>
    <contour>
      <point x="309" y="678" type="curve"/>
      <point x="382" y="734" type="line"/>
      <point x="389" y="727"/>
      <point x="396" y="720"/>
      <point x="403" y="713" type="curve"/>
      <point x="368" y="662"/>
      <point x="340" y="630"/>
      <point x="301" y="630" type="curve" smooth="yes"/>
      <point x="256" y="630"/>
      <point x="206" y="665"/>
      <point x="162" y="689" type="curve"/>
      <point x="85" y="625" type="line"/>
      <point x="77" y="632"/>
      <point x="68" y="639"/>
      <point x="60" y="646" type="curve"/>
      <point x="90" y="699"/>
      <point x="128" y="736"/>
      <point x="166" y="736" type="curve" smooth="yes"/>
      <point x="209" y="736"/>
      <point x="258" y="705"/>
    </contour>
  </outline>
</glyph>
<glyph name="uni0307" format="2">
  <advance width="280"/>
  <unicode hex="0307"/>
  <anchor x="140" y="540" name="_top"/>
  <outline>
    <contour>
      <point x="169" y="664" type="curve"/>
      <point x="178" y="678"/>
      <point x="183" y="695"/>
      <point x="183" y="714" type="curve" smooth="yes"/>
      <point x="183" y="729"/>
      <point x="181" y="742"/>
      <point x="175" y="753" type="curve"/>
      <point x="156" y="756"/>
      <point x="117" y="750"/>
      <point x="97" y="744" type="curve"/>
      <point x="93" y="721"/>
      <point x="95" y="688"/>
      <point x="101" y="670" type="curve"/>
      <point x="122" y="661"/>
      <point x="145" y="660"/>
    </contour>
  </outline>
</glyph>
<glyph name="uni0308" format="2">
  <advance width="371"/>
  <unicode hex="0308"/>
  <anchor x="186" y="745" name="top"/>
  <anchor x="186" y="500" name="_top"/>
  <outline>
    <contour>
      <point x="95" y="655" type="curve" smooth="yes"/>
      <point x="106" y="655"/>
      <point x="118" y="658"/>
      <point x="126" y="664" type="curve"/>
      <point x="136" y="672"/>
      <point x="141" y="685"/>
      <point x="141" y="699" type="curve" smooth="yes"/>
      <point x="141" y="724"/>
      <point x="122" y="745"/>
      <point x="97" y="745" type="curve" smooth="yes"/>
      <point x="85" y="745"/>
      <point x="71" y="740"/>
      <point x="63" y="732" type="curve"/>
      <point x="54" y="724"/>
      <point x="50" y="712"/>
      <point x="50" y="699" type="curve" smooth="yes"/>
      <point x="50" y="674"/>
      <point x="70" y="655"/>
    </contour>
    <contour>
      <point x="275" y="655" type="curve" smooth="yes"/>
      <point x="285" y="655"/>
      <point x="298" y="658"/>
      <point x="306" y="664" type="curve"/>
      <point x="317" y="672"/>
      <point x="321" y="684"/>
      <point x="321" y="699" type="curve" smooth="yes"/>
      <point x="321" y="724"/>
      <point x="300" y="745"/>
      <point x="275" y="745" type="curve" smooth="yes"/>
      <point x="262" y="745"/>
      <point x="248" y="739"/>
      <point x="240" y="730" type="curve"/>
      <point x="233" y="721"/>
      <point x="231" y="711"/>
      <point x="231" y="699" type="curve" smooth="yes"/>
      <point x="231" y="674"/>
      <point x="250" y="655"/>
    </contour>
  </outline>
</glyph>
<glyph name="quoteleft" format="2">
  <advance width="167"/>
  <unicode hex="2018"/>
  <outline>
    <contour>
      <point x="90" y="473" type="curve" smooth="yes"/>
      <point x="111" y="473"/>
      <point x="124" y="478"/>
      <point x="137" y="491" type="curve"/>
      <point x="123" y="525"/>
      <point x="107" y="556"/>
      <point x="97" y="577" type="curve"/>
      <point x="136" y="737" type="line"/>
      <point x="107" y="750" type="line"/>
      <point x="71" y="688"/>
      <point x="30" y="604"/>
      <point x="30" y="546" type="curve" smooth="yes"/>
      <point x="30" y="503"/>
      <point x="55" y="473"/>
    </contour>
  </outline>
</glyph>
<glyph name="_part.TailFigures" format="2">
  <advance width="410"/>
  <outline>
    <contour>
      <point x="350" y="53" type="line"/>
      <point x="350" y="-37" type="line"/>
      <point x="362" y="4" type="line"/>
      <point x="335" y="-51"/>
      <point x="276" y="-75"/>
      <point x="198" y="-75" type="curve" smooth="yes"/>
      <point x="138" y="-75"/>
      <point x="75" y="-60"/>
      <point x="35" y="-32" type="curve"/>
      <point x="10" y="-78" type="line"/>
      <point x="54" y="-109"/>
      <point x="119" y="-130"/>
      <point x="200" y="-130" type="curve" smooth="yes"/>
      <point x="303" y="-130"/>
      <point x="377" y="-84"/>
      <point x="409" y="-11" type="curve"/>
      <point x="410" y="14" type="line"/>
      <point x="410" y="53" type="line"/>
    </contour>
  </outline>
</glyph>
<glyph name="_part.bottomFigures" format="2">
  <advance width="420"/>
  <outline>
    <contour>
      <point x="19" y="0" type="line"/>
      <point x="405" y="0" type="line"/>
      <point x="420" y="15" type="line"/>
      <point x="415" y="62" type="line"/>
      <point x="28" y="40" type="line"/>
      <point x="0" y="62" type="line"/>
      <point x="0" y="20" type="line"/>
    </contour>
  </outline>
</glyph>
<glyph name="_part.sixBowl" format="2">
  <advance width="520"/>
  <outline>
    <contour>
      <point x="130" y="433" type="line"/>
      <point x="70" y="422" type="line"/>
      <point x="70" y="165" type="line" smooth="yes"/>
      <point x="70" y="45"/>
      <point x="130" y="-10"/>
      <point x="251" y="-10" type="curve" smooth="yes"/>
      <point x="297" y="-10"/>
      <point x="348" y="-4"/>
      <point x="370" y="4" type="curve"/>
      <point x="450" y="109" type="line"/>
      <point x="450" y="254" type="line" smooth="yes"/>
      <point x="450" y="347"/>
      <point x="395" y="401"/>
      <point x="298" y="401" type="curve" smooth="yes"/>
      <point x="260" y="401"/>
      <point x="209" y="397"/>
      <point x="185" y="392" type="curve"/>
      <point x="126" y="355" type="line"/>
      <point x="126" y="336" type="line"/>
      <point x="163" y="344"/>
      <point x="225" y="351"/>
      <point x="284" y="351" type="curve" smooth="yes"/>
      <point x="343" y="351"/>
      <point x="390" y="327"/>
      <point x="390" y="248" type="curve" smooth="yes"/>
      <point x="390" y="40" type="line"/>
      <point x="400" y="60" type="line"/>
      <point x="378" y="51"/>
      <point x="344" y="43"/>
      <point x="258" y="43" type="curve" smooth="yes"/>
      <point x="165" y="43"/>
      <point x="130" y="75"/>
      <point x="130" y="178" type="curve" smooth="yes"/>
    </contour>
  </outline>
</glyph>
<glyph name="_part.tailFiguresOld" format="2">
  <advance width="400"/>
  <anchor x="400" y="138" name="connect"/>
  <anchor x="0" y="138" name="_connect"/>
  <outline>
    <contour>
      <point x="400" y="138" type="curve"/>
      <point x="340" y="127" type="line"/>
      <point x="340" y="25"/>
      <point x="225" y="-73"/>
      <point x="0" y="-91" type="curve"/>
      <point x="0" y="-120" type="line"/>
      <point x="28" y="-130" type="line"/>
      <point x="195" y="-130"/>
      <point x="400" y="-51"/>
    </contour>
  </outline>
</glyph>
<glyph name="_part.threeTop" format="2">
  <advance width="400"/>
  <outline>
    <contour>
      <point x="400" y="173" type="line"/>
      <point x="400" y="190" type="line" smooth="yes"/>
      <point x="400" y="300"/>
      <point x="336" y="368"/>
      <point x="243" y="368" type="curve" smooth="yes"/>
      <point x="220" y="368"/>
      <point x="152" y="368"/>
      <point x="137" y="365" type="curve"/>
      <point x="148" y="344" type="line"/>
      <point x="390" y="635" type="line"/>
      <point x="375" y="680" type="line"/>
      <point x="40" y="680" type="line"/>
      <point x="10" y="649" type="line"/>
      <point x="22" y="523" type="line"/>
      <point x="52" y="523" type="line"/>
      <point x="63" y="644" type="line"/>
      <point x="35" y="625" type="line"/>
      <point x="354" y="625" type="line"/>
      <point x="336" y="657" type="line"/>
      <point x="96" y="337" type="line"/>
      <point x="112" y="313" type="line"/>
      <point x="127" y="316"/>
      <point x="201" y="317"/>
      <point x="219" y="317" type="curve" smooth="yes"/>
      <point x="300" y="317"/>
      <point x="340" y="273"/>
      <point x="340" y="179" type="curve" smooth="yes"/>
      <point x="340" y="173" type="line"/>
    </contour>
  </outline>
</glyph>
<glyph name="_part.topFive" format="2">
  <advance width="520"/>
  <outline>
    <contour>
      <point x="450" y="53" type="line"/>
      <point x="450" y="110" type="line" smooth="yes"/>
      <point x="450" y="216"/>
      <point x="359" y="272"/>
      <point x="257" y="272" type="curve" smooth="yes"/>
      <point x="173" y="272"/>
      <point x="148" y="256"/>
      <point x="111" y="247" type="curve"/>
      <point x="128" y="226" type="line"/>
      <point x="128" y="533" type="line"/>
      <point x="104" y="505" type="line"/>
      <point x="387" y="505" type="line"/>
      <point x="369" y="519" type="line"/>
      <point x="392" y="370" type="line"/>
      <point x="422" y="370" type="line"/>
      <point x="430" y="530" type="line"/>
      <point x="400" y="560" type="line"/>
      <point x="114" y="560" type="line"/>
      <point x="73" y="490" type="line"/>
      <point x="73" y="256" type="line"/>
      <point x="123" y="204" type="line"/>
      <point x="154" y="210"/>
      <point x="193" y="218"/>
      <point x="255" y="217" type="curve" smooth="yes"/>
      <point x="340" y="216"/>
      <point x="390" y="172"/>
      <point x="390" y="104" type="curve" smooth="yes"/>
      <point x="390" y="53" type="line"/>
    </contour>
  </outline>
</glyph>
<glyph name="a.ss01" format="2">
  <advance width="512"/>
  <anchor x="519" y="10" name="ogonek"/>
  <anchor x="306" y="0" name="bottom"/>
  <anchor x="306" y="540" name="top"/>
  <outline>
    <contour>
      <point x="225" y="-10" type="curve" smooth="yes"/>
      <point x="268" y="-10"/>
      <point x="299" y="-4"/>
      <point x="311" y="0" type="curve"/>
      <point x="374" y="54" type="line"/>
      <point x="374" y="66" type="line"/>
      <point x="351" y="59"/>
      <point x="294" y="45"/>
      <point x="253" y="45" type="curve" smooth="yes"/>
      <point x="174" y="45"/>
      <point x="140" y="66"/>
      <point x="140" y="118" type="curve"/>
      <point x="140" y="495" type="line"/>
      <point x="126" y="482" type="line"/>
      <point x="134" y="483"/>
      <point x="186" y="500"/>
      <point x="234" y="500" type="curve" smooth="yes"/>
      <point x="306" y="500"/>
      <point x="356" y="463"/>
      <point x="362" y="453" type="curve"/>
      <point x="381" y="472" type="line"/>
      <point x="357" y="511"/>
      <point x="309" y="550"/>
      <point x="246" y="550" type="curve" smooth="yes"/>
      <point x="192" y="550"/>
      <point x="155" y="543"/>
      <point x="140" y="535" type="curve"/>
      <point x="80" y="465" type="line"/>
      <point x="81" y="155" type="line" smooth="yes"/>
      <point x="81" y="34"/>
      <point x="133" y="-10"/>
    </contour>
    <contour>
      <point x="407" y="47" type="line"/>
      <point x="407" y="540" type="line"/>
      <point x="377" y="540" type="line"/>
      <point x="347" y="483" type="line"/>
      <point x="347" y="66" type="line"/>
      <point x="347" y="45"/>
      <point x="378" y="-7"/>
      <point x="427" y="-10" type="curve"/>
      <point x="497" y="7" type="line"/>
      <point x="497" y="37" type="line"/>
    </contour>
  </outline>
</glyph>
<glyph name="eight.osf" format="2">
  <advance width="520"/>
  <outline>
    <contour>
      <point x="460" y="150" type="line" smooth="yes"/>
      <point x="460" y="298"/>
      <point x="371" y="322"/>
      <point x="286" y="370" type="curve" smooth="yes"/>
      <point x="206" y="415"/>
      <point x="140" y="429"/>
      <point x="140" y="551" type="curve" smooth="yes"/>
      <point x="140" y="629" type="line"/>
      <point x="137" y="618" type="line"/>
      <point x="147" y="623"/>
      <point x="201" y="635"/>
      <point x="258" y="635" type="curve" smooth="yes"/>
      <point x="325" y="635"/>
      <point x="387" y="596"/>
      <point x="387" y="535" type="curve" smooth="yes"/>
      <point x="387" y="452"/>
      <point x="340" y="402"/>
      <point x="282" y="353" type="curve"/>
      <point x="292" y="333" type="line"/>
      <point x="341" y="336" type="line"/>
      <point x="425" y="413"/>
      <point x="447" y="450"/>
      <point x="447" y="543" type="curve" smooth="yes"/>
      <point x="447" y="630"/>
      <point x="370" y="690"/>
      <point x="283" y="690" type="curve" smooth="yes"/>
      <point x="239" y="690"/>
      <point x="202" y="684"/>
      <point x="175" y="676" type="curve"/>
      <point x="85" y="576" type="line"/>
      <point x="85" y="531" type="line" smooth="yes"/>
      <point x="85" y="394"/>
      <point x="153" y="374"/>
      <point x="234" y="329" type="curve" smooth="yes"/>
      <point x="318" y="282"/>
      <point x="405" y="262"/>
      <point x="405" y="130" type="curve" smooth="yes"/>
      <point x="405" y="102"/>
      <point x="403" y="75"/>
      <point x="397" y="47" type="curve"/>
      <point x="411" y="67" type="line"/>
      <point x="398" y="57"/>
      <point x="333" y="45"/>
      <point x="263" y="45" type="curve" smooth="yes"/>
      <point x="173" y="45"/>
      <point x="120" y="86"/>
      <point x="120" y="157" type="curve" smooth="yes"/>
      <point x="120" y="234"/>
      <point x="160" y="284"/>
      <point x="253" y="339" type="curve"/>
      <point x="214" y="374" type="line"/>
      <point x="191" y="358" type="line"/>
      <point x="107" y="304"/>
      <point x="60" y="243"/>
      <point x="60" y="154" type="curve" smooth="yes"/>
      <point x="60" y="45"/>
      <point x="148" y="-10"/>
      <point x="270" y="-10" type="curve" smooth="yes"/>
      <point x="309" y="-10"/>
      <point x="346" y="-4"/>
      <point x="370" y="4" type="curve"/>
      <point x="460" y="109" type="line"/>
    </contour>
  </outline>
</glyph>
<glyph name="four.osf" format="2">
  <advance width="520"/>
  <outline>
    <contour>
      <point x="340" y="560" type="line"/>
      <point x="20" y="33" type="line"/>
      <point x="34" y="0" type="line"/>
      <point x="485" y="0" type="line"/>
      <point x="500" y="15" type="line"/>
      <point x="498" y="51" type="line"/>
      <point x="55" y="40" type="line"/>
      <point x="71" y="26" type="line"/>
      <point x="380" y="544" type="line"/>
      <point x="350" y="544" type="line"/>
      <point x="350" y="-120" type="line"/>
      <point x="360" y="-130" type="line"/>
      <point x="410" y="-120" type="line"/>
      <point x="410" y="560" type="line"/>
    </contour>
  </outline>
</glyph>
<glyph name="one.lf" format="2">
  <advance width="520"/>
  <outline>
    <contour>
      <point x="40" y="0" type="line"/>
      <point x="480" y="0" type="line"/>
      <point x="480" y="35" type="line"/>
      <point x="293" y="55" type="line"/>
      <point x="293" y="675" type="line"/>
      <point x="278" y="690" type="line"/>
      <point x="56" y="663" type="line"/>
      <point x="56" y="632" type="line"/>
      <point x="233" y="625" type="line"/>
      <point x="233" y="55" type="line"/>
      <point x="40" y="35" type="line"/>
    </contour>
  </outline>
</glyph>
<glyph name="one.osf" format="2">
  <advance width="520"/>
  <outline>
    <contour>
      <point x="40" y="0" type="line"/>
      <point x="480" y="0" type="line"/>
      <point x="480" y="40" type="line"/>
      <point x="293" y="55" type="line"/>
      <point x="293" y="555" type="line"/>
      <point x="278" y="570" type="line"/>
      <point x="56" y="548" type="line"/>
      <point x="56" y="512" type="line"/>
      <point x="233" y="505" type="line"/>
      <point x="233" y="55" type="line"/>
      <point x="40" y="40" type="line"/>
    </contour>
  </outline>
</glyph>
<glyph name="q.ss01" format="2">
  <advance width="537"/>
  <outline>
    <contour>
      <point x="225" y="-10" type="curve" smooth="yes"/>
      <point x="268" y="-10"/>
      <point x="299" y="-4"/>
      <point x="311" y="0" type="curve"/>
      <point x="374" y="54" type="line"/>
      <point x="374" y="66" type="line"/>
      <point x="351" y="59"/>
      <point x="294" y="45"/>
      <point x="253" y="45" type="curve" smooth="yes"/>
      <point x="174" y="45"/>
      <point x="140" y="66"/>
      <point x="140" y="118" type="curve"/>
      <point x="140" y="495" type="line"/>
      <point x="126" y="482" type="line"/>
      <point x="134" y="483"/>
      <point x="186" y="500"/>
      <point x="234" y="500" type="curve" smooth="yes"/>
      <point x="306" y="500"/>
      <point x="356" y="463"/>
      <point x="362" y="453" type="curve"/>
      <point x="381" y="472" type="line"/>
      <point x="357" y="511"/>
      <point x="309" y="550"/>
      <point x="246" y="550" type="curve" smooth="yes"/>
      <point x="192" y="550"/>
      <point x="155" y="543"/>
      <point x="140" y="535" type="curve"/>
      <point x="80" y="465" type="line"/>
      <point x="81" y="155" type="line" smooth="yes"/>
      <point x="81" y="34"/>
      <point x="133" y="-10"/>
    </contour>
    <contour>
      <point x="372" y="-210" type="line"/>
      <point x="497" y="-200" type="line"/>
      <point x="497" y="-170" type="line"/>
      <point x="407" y="-160" type="line"/>
      <point x="407" y="535" type="line"/>
      <point x="377" y="540" type="line"/>
      <point x="347" y="483" type="line"/>
      <point x="347" y="46" type="line"/>
      <point x="347" y="36" type="line"/>
      <point x="347" y="-185" type="line"/>
    </contour>
  </outline>
</glyph>
<glyph name="seven.osf" format="2">
  <advance width="520"/>
  <outline>
    <contour>
      <point x="214" y="-120" type="line"/>
      <point x="304" y="134" type="line"/>
      <point x="490" y="533" type="line"/>
      <point x="468" y="560" type="line"/>
      <point x="70" y="560" type="line"/>
      <point x="40" y="530" type="line"/>
      <point x="55" y="350" type="line"/>
      <point x="85" y="350" type="line"/>
      <point x="109" y="519" type="line"/>
      <point x="81" y="505" type="line"/>
      <point x="445" y="505" type="line"/>
      <point x="430" y="551" type="line"/>
      <point x="267" y="154" type="line"/>
      <point x="150" y="-96" type="line"/>
      <point x="180" y="-130" type="line"/>
    </contour>
  </outline>
</glyph>
<glyph name="six.lf" format="2">
  <advance width="520"/>
  <outline>
    <contour>
      <point x="70" y="422" type="curve"/>
      <point x="130" y="433" type="line"/>
      <point x="130" y="589"/>
      <point x="182" y="635"/>
      <point x="282" y="635" type="curve" smooth="yes"/>
      <point x="326" y="635"/>
      <point x="370" y="632"/>
      <point x="402" y="629" type="curve"/>
      <point x="407" y="670" type="line"/>
      <point x="384" y="687" type="line"/>
      <point x="352" y="689"/>
      <point x="317" y="690"/>
      <point x="286" y="690" type="curve" smooth="yes"/>
      <point x="161" y="690"/>
      <point x="70" y="635"/>
    </contour>
    <component base="_part.sixBowl"/>
  </outline>
</glyph>
<glyph name="six.osf" format="2">
  <advance width="520"/>
  <outline>
    <contour>
      <point x="130" y="433" type="line"/>
      <point x="70" y="422" type="line"/>
      <point x="70" y="165" type="line" smooth="yes"/>
      <point x="70" y="45"/>
      <point x="130" y="-10"/>
      <point x="251" y="-10" type="curve" smooth="yes"/>
      <point x="297" y="-10"/>
      <point x="348" y="-4"/>
      <point x="370" y="4" type="curve"/>
      <point x="450" y="109" type="line"/>
      <point x="450" y="257" type="line" smooth="yes"/>
      <point x="450" y="350"/>
      <point x="395" y="404"/>
      <point x="298" y="404" type="curve" smooth="yes"/>
      <point x="260" y="404"/>
      <point x="209" y="400"/>
      <point x="185" y="395" type="curve"/>
      <point x="126" y="358" type="line"/>
      <point x="126" y="339" type="line"/>
      <point x="163" y="347"/>
      <point x="225" y="354"/>
      <point x="284" y="354" type="curve" smooth="yes"/>
      <point x="343" y="354"/>
      <point x="390" y="330"/>
      <point x="390" y="251" type="curve" smooth="yes"/>
      <point x="390" y="40" type="line"/>
      <point x="400" y="60" type="line"/>
      <point x="378" y="51"/>
      <point x="344" y="43"/>
      <point x="258" y="43" type="curve" smooth="yes"/>
      <point x="165" y="43"/>
      <point x="130" y="75"/>
      <point x="130" y="178" type="curve" smooth="yes"/>
    </contour>
    <component base="_part.tailFiguresOld" xScale="-1" yScale="-1" xOffset="470" yOffset="560"/>
  </outline>
</glyph>
<glyph name="two.lf" format="2">
  <advance width="520"/>
  <outline>
    <contour>
      <point x="124" y="45" type="line"/>
      <point x="256" y="177"/>
      <point x="442" y="341"/>
      <point x="442" y="501" type="curve" smooth="yes"/>
      <point x="442" y="625"/>
      <point x="365" y="690"/>
      <point x="245" y="690" type="curve" smooth="yes"/>
      <point x="206" y="690"/>
      <point x="167" y="685"/>
      <point x="138" y="678" type="curve"/>
      <point x="60" y="614" type="line"/>
      <point x="73" y="488" type="line"/>
      <point x="105" y="488" type="line"/>
      <point x="116" y="623" type="line"/>
      <point x="150" y="631"/>
      <point x="189" y="639"/>
      <point x="231" y="639" type="curve" smooth="yes"/>
      <point x="320" y="639"/>
      <point x="381" y="597"/>
      <point x="381" y="498" type="curve" smooth="yes"/>
      <point x="381" y="337"/>
      <point x="188" y="180"/>
      <point x="50" y="35" type="curve"/>
      <point x="55" y="0" type="line"/>
      <point x="465" y="0" type="line"/>
      <point x="480" y="15" type="line"/>
      <point x="475" y="60" type="line"/>
    </contour>
  </outline>
</glyph>
<glyph name="two.osf" format="2">
  <advance width="520"/>
  <outline>
    <contour>
      <point x="137" y="42" type="line"/>
      <point x="261" y="136"/>
      <point x="436" y="254"/>
      <point x="436" y="399" type="curve" smooth="yes"/>
      <point x="436" y="507"/>
      <point x="366" y="570"/>
      <point x="250" y="570" type="curve" smooth="yes"/>
      <point x="211" y="570"/>
      <point x="177" y="565"/>
      <point x="148" y="558" type="curve"/>
      <point x="70" y="494" type="line"/>
      <point x="85" y="368" type="line"/>
      <point x="115" y="368" type="line"/>
      <point x="126" y="503" type="line"/>
      <point x="160" y="511"/>
      <point x="194" y="519"/>
      <point x="235" y="519" type="curve" smooth="yes"/>
      <point x="322" y="519"/>
      <point x="375" y="476"/>
      <point x="375" y="390" type="curve" smooth="yes"/>
      <point x="375" y="265"/>
      <point x="185" y="133"/>
      <point x="60" y="42" type="curve"/>
      <point x="69" y="0" type="line"/>
      <point x="465" y="0" type="line"/>
      <point x="480" y="15" type="line"/>
      <point x="475" y="62" type="line"/>
    </contour>
  </outline>
</glyph>
<glyph name="u.ss01" format="2">
  <advance width="543"/>
  <outline>
    <contour>
      <point x="255" y="-11" type="curve" smooth="yes"/>
      <point x="280" y="-11"/>
      <point x="307" y="-7"/>
      <point x="332" y="0" type="curve"/>
      <point x="387" y="55" type="line"/>
      <point x="388" y="69" type="line"/>
      <point x="358" y="56"/>
      <point x="311" y="44"/>
      <point x="265" y="44" type="curve" smooth="yes"/>
      <point x="230" y="44"/>
      <point x="196" y="51"/>
      <point x="170" y="69" type="curve"/>
      <point x="170" y="535" type="line"/>
      <point x="155" y="550" type="line"/>
      <point x="20" y="533" type="line"/>
      <point x="20" y="503" type="line"/>
      <point x="110" y="493" type="line"/>
      <point x="110" y="120" type="line" smooth="yes"/>
      <point x="110" y="33"/>
      <point x="178" y="-11"/>
    </contour>
    <contour>
      <point x="428" y="-10" type="curve"/>
      <point x="528" y="0" type="line"/>
      <point x="528" y="30" type="line"/>
      <point x="438" y="47" type="line"/>
      <point x="438" y="540" type="line"/>
      <point x="403" y="550" type="line"/>
      <point x="378" y="525" type="line"/>
      <point x="378" y="61" type="line" smooth="yes"/>
      <point x="378" y="45"/>
      <point x="395" y="1"/>
    </contour>
  </outline>
</glyph>
<glyph name="zero.lf" format="2">
  <advance width="520"/>
  <outline>
    <contour>
      <point x="253" y="-10" type="curve" smooth="yes"/>
      <point x="286" y="-10"/>
      <point x="350" y="-4"/>
      <point x="370" y="4" type="curve"/>
      <point x="450" y="109" type="line"/>
      <point x="450" y="515" type="line" smooth="yes"/>
      <point x="450" y="635"/>
      <point x="380" y="690"/>
      <point x="271" y="690" type="curve" smooth="yes"/>
      <point x="238" y="690"/>
      <point x="170" y="684"/>
      <point x="150" y="676" type="curve"/>
      <point x="70" y="571" type="line"/>
      <point x="70" y="165" type="line" smooth="yes"/>
      <point x="70" y="45"/>
      <point x="140" y="-10"/>
    </contour>
    <contour>
      <point x="390" y="40" type="line"/>
      <point x="400" y="60" type="line"/>
      <point x="380" y="51"/>
      <point x="305" y="43"/>
      <point x="260" y="43" type="curve" smooth="yes"/>
      <point x="168" y="43"/>
      <point x="130" y="87"/>
      <point x="130" y="178" type="curve" smooth="yes"/>
      <point x="130" y="640" type="line"/>
      <point x="120" y="620" type="line"/>
      <point x="140" y="629"/>
      <point x="204" y="637"/>
      <point x="260" y="637" type="curve" smooth="yes"/>
      <point x="340" y="637"/>
      <point x="390" y="593"/>
      <point x="390" y="502" type="curve" smooth="yes"/>
    </contour>
  </outline>
</glyph>
<glyph name="zero.osf" format="2">
  <advance width="520"/>
  <outline>
    <contour>
      <point x="253" y="-10" type="curve" smooth="yes"/>
      <point x="286" y="-10"/>
      <point x="350" y="-4"/>
      <point x="370" y="4" type="curve"/>
      <point x="450" y="109" type="line"/>
      <point x="450" y="395" type="line" smooth="yes"/>
      <point x="450" y="515"/>
      <point x="380" y="570"/>
      <point x="271" y="570" type="curve" smooth="yes"/>
      <point x="238" y="570"/>
      <point x="170" y="564"/>
      <point x="150" y="556" type="curve"/>
      <point x="70" y="451" type="line"/>
      <point x="70" y="165" type="line" smooth="yes"/>
      <point x="70" y="45"/>
      <point x="140" y="-10"/>
    </contour>
    <contour>
      <point x="390" y="40" type="line"/>
      <point x="400" y="60" type="line"/>
      <point x="380" y="51"/>
      <point x="305" y="43"/>
      <point x="260" y="43" type="curve" smooth="yes"/>
      <point x="168" y="43"/>
      <point x="130" y="87"/>
      <point x="130" y="178" type="curve" smooth="yes"/>
      <point x="130" y="520" type="line"/>
      <point x="120" y="500" type="line"/>
      <point x="140" y="509"/>
      <point x="204" y="517"/>
      <point x="260" y="517" type="curve" smooth="yes"/>
      <point x="340" y="517"/>
      <point x="390" y="473"/>
      <point x="390" y="382" type="curve" smooth="yes"/>
    </contour>
  </outline>
</glyph>
